<svg id="Layer_1" data-name="Layer 1" xmlns="http://www.w3.org/2000/svg" viewBox="0 0 225 225"><defs><style>.cls-1{fill:#00b2ce;}</style></defs><path class="cls-1" d="M21.68,164.73a3.28,3.28,0,0,1-3.43,3.46c-2.15,0-3.45-1.71-3.43-4.41a3.31,3.31,0,0,1,3.44-3.47C20.42,160.36,21.72,162,21.68,164.73Z"/><path class="cls-1" d="M210.86,139.35a36.25,36.25,0,0,0-8.28,2.87c-12.07,5.89-22.88,13.83-34,21.18a3.4,3.4,0,0,0-1,4.85,3.36,3.36,0,0,0,4.72.8c1.51-.92,2.95-2,4.43-3,9.17-6.06,18.14-12.42,28-17.36a25.09,25.09,0,0,1,7.68-2.73c3-.43,5,1.57,4.56,4.62a13.16,13.16,0,0,1-1.7,4.58,39.29,39.29,0,0,1-5.26,7,129,129,0,0,1-17.4,15.55c-15.33,11.67-31.15,22.6-48.41,31.31-10.07,5.1-20.59,7.42-31.88,6.15-9.09-1-17.72-3.71-26.3-6.72-7.19-2.54-14.13-5.81-21.79-6.95a131.71,131.71,0,0,0-22.27-1.09c-1.31,0-1.94-.16-2-1.68-.18-2.72-.67-5.42-1-8.12q-2-16.38-4-32.74c-.09-.75-.17-1.3.7-1.61,8.61-3.1,16.54-7.81,25.3-10.53,6.77-2.1,13.66-3.48,20.77-2.24,5.79,1,11,3.57,16.07,6.46A170.25,170.25,0,0,0,133.6,165.4,164.58,164.58,0,0,1,152,171.75a14.56,14.56,0,0,1,5,3.11c1.35,1.43,1.18,2.31-.61,3.07a23.85,23.85,0,0,1-7.35,1.7c-15.89,1.47-31.5.44-46.65-5-3.91-1.41-7.86-2.73-11.79-4.07-2.06-.7-3.92.06-4.6,1.82s.15,3.67,2.29,4.55c.5.21,1,.39,1.52.58,14.63,5.25,29.35,10.06,45.2,9.47,2.73,0,5.47.11,8.19,0,5.39-.28,10.8-.61,15.85-2.75,6.43-2.73,7.63-9.29,2.66-14.24a20.08,20.08,0,0,0-5.76-3.84,130.51,130.51,0,0,0-14.58-5.36c-10.41-3.47-21-6.34-30.79-11.59-5-2.69-10-5.37-15-7.9a42.29,42.29,0,0,0-15-4.69c-9.83-.88-19.12,1.41-28.11,5.13-5.86,2.42-11.63,5-17.43,7.63-1.14.51-1.79.5-2.62-.72a11.06,11.06,0,0,0-10.79-5c-4,.39-8,.9-12,1.52A11.38,11.38,0,0,0,.09,157.89q3.11,25.52,6.23,51c.89,7.27,6,11.52,13.25,10.84,3.73-.35,7.46-.82,11.18-1.37A11.62,11.62,0,0,0,40,211.21c.6-1.3-.1-3.32,1.48-3.89,1.34-.48,3-.16,4.47-.17s3,0,4.51,0c8.92.28,17.64,1.47,26,5,5.7,2.42,11.64,4.29,17.57,6.16,20,6.26,39.13,5.21,57.69-5.39a406.69,406.69,0,0,0,41.93-27.45c8.48-6.36,16.71-13,23.51-21.24,2.84-3.45,5.31-7.13,6.29-11.59C225.08,145.31,219.81,137.44,210.86,139.35ZM28.17,211.88c-3,.39-6,.69-8.94,1.05-3.65.45-5.72-1.11-6.19-4.79-.73-5.82-1.42-11.64-2.13-17.47q-2-16.14-4-32.29c-.54-4.2.91-6.17,5.07-6.7l9.77-1.23c3.55-.17,5.54,1.48,5.91,4.44q3.06,24.88,6.11,49.76C34.39,209.64,33.14,211.23,28.17,211.88Z"/><path class="cls-1" d="M146.24,53.2a3.48,3.48,0,0,1-1.16,2.73Q130.51,70.47,116,85c-1.79,1.78-3.6,1.77-5.4,0Q101.76,76.3,93,67.5c-1.79-1.81-1.78-3.73-.2-5.2,1.43-1.33,3.37-1.17,5.07.51,4.7,4.66,9.42,9.31,14,14,1,1,1.52,1.05,2.53,0,8.32-8.38,16.7-16.69,25.06-25,.91-.92,1.77-1.88,3.25-1.89A3.22,3.22,0,0,1,146.24,53.2Z"/><path class="cls-1" d="M172.26,24.9c0-2.8-1.21-3.89-4-4a50.3,50.3,0,0,1-11.5-1.8C143.41,15.33,131.64,8.55,120.49.55c-2.59-1.85-3.5-1.87-6,0A136.34,136.34,0,0,1,93.66,13.12c-8.46,4.1-17.2,7.32-26.73,7.76-3.28.15-4.31,1.18-4.31,4.55,0,9.22,0,18.44,0,29.78.28,8.32-.67,18.79.4,29.2,1.1,10.65,5.68,19.57,14.61,25.91,12,8.49,24.27,16.48,36.45,24.66,2.41,1.61,4.29,1.66,6.67,0,9.19-6.27,18.49-12.37,27.71-18.59,4.3-2.9,8.78-5.58,12.56-9.16,7.78-7.4,11.09-16.8,11.2-27.26C172.42,61.64,172.28,43.27,172.26,24.9Zm-6.93,55.92c-.17,10.06-4.06,18.56-12.66,24.45-4.72,3.23-9.42,6.52-14.18,9.72-6.45,4.34-13,8.6-19.39,13a2.48,2.48,0,0,1-3.26,0c-11-7.42-22.11-14.79-33.09-22.31C74.09,99.75,70,91.44,69.58,81.29c-.34-8.52-.07-17.07-.07-25.6h0q0-13.21,0-26.43c0-.84-.25-1.67,1.17-1.85,14.7-1.82,27.57-8.29,39.92-16A51.45,51.45,0,0,0,115.66,8c1.28-1,2.21-1,3.55,0a128.08,128.08,0,0,0,22.51,12.9c6.93,3.11,14.06,5.61,21.68,6.4,1.56.17,2.09.68,2.08,2.37C165.39,46.68,165.61,63.75,165.33,80.82Z"/><path class="cls-1" d="M21.68,164.73a3.28,3.28,0,0,1-3.43,3.46c-2.15,0-3.45-1.71-3.43-4.41a3.31,3.31,0,0,1,3.44-3.47C20.42,160.36,21.72,162,21.68,164.73Z"/><path class="cls-1" d="M146.24,53.2a3.48,3.48,0,0,1-1.16,2.73Q130.51,70.47,116,85c-1.79,1.78-3.6,1.77-5.4,0Q101.76,76.3,93,67.5c-1.79-1.81-1.78-3.73-.2-5.2,1.43-1.33,3.37-1.17,5.07.51,4.7,4.66,9.42,9.31,14,14,1,1,1.52,1.05,2.53,0,8.32-8.38,16.7-16.69,25.06-25,.91-.92,1.77-1.88,3.25-1.89A3.22,3.22,0,0,1,146.24,53.2Z"/><path class="cls-1" d="M21.68,164.73a3.28,3.28,0,0,1-3.43,3.46c-2.15,0-3.45-1.71-3.43-4.41a3.31,3.31,0,0,1,3.44-3.47C20.42,160.36,21.72,162,21.68,164.73Z"/><path class="cls-1" d="M146.24,53.2a3.48,3.48,0,0,1-1.16,2.73Q130.51,70.47,116,85c-1.79,1.78-3.6,1.77-5.4,0Q101.76,76.3,93,67.5c-1.79-1.81-1.78-3.73-.2-5.2,1.43-1.33,3.37-1.17,5.07.51,4.7,4.66,9.42,9.31,14,14,1,1,1.52,1.05,2.53,0,8.32-8.38,16.7-16.69,25.06-25,.91-.92,1.77-1.88,3.25-1.89A3.22,3.22,0,0,1,146.24,53.2Z"/></svg>