<svg id="Layer_1" data-name="Layer 1" xmlns="http://www.w3.org/2000/svg" viewBox="0 0 225 225"><defs><style>.cls-1{fill:#00b2ce;}</style></defs><path class="cls-1" d="M177,70A15.6,15.6,0,0,0,160.9,85.62,15.89,15.89,0,1,0,177,70Zm7.17,16.52c-3,1.73-5.9,3.51-8.82,5.31-1.45.9-3.16,1.94-4.36.22-1.58-2.22-4.31-4.36-3.33-7.42.72-2.24,3.18-2.12,4.16-.21,1.67,3.3,3.31,1.84,5.25.62,1.76-1.12,3.57-2.16,5.41-3.16,2.25-1.23,3.19.21,4,1.62A3.76,3.76,0,0,1,184.13,86.47Z"/><path class="cls-1" d="M212,55c0-2.11-1.46-3.21-3.54-3.33a24.71,24.71,0,0,0-4.94,0c-3.81.58-6.26-.74-7.5-4.48-1.09-3.34-3.54-4.27-7-4.11-5.69.27-11.4-.14-17.09.15-3.29.17-4-1-3.85-4,.26-4.34-.15-8.71.12-13,.43-7-2.78-11.72-8.48-15.15-6.48-3.9-13.65-6-21-7.45A199.59,199.59,0,0,0,73.46,1.9c-10.52,1.38-21,3.4-30.28,9C37.9,14.08,34.34,18.39,34.26,25c0,3.55,1.58,8.29-.66,10.34-2.43,2.21-7.16.33-10.85.71-2.8.29-3.16-1-3.09-3.37.16-4.94,0-9.9.05-14.85,0-2.28-.42-4.39-3.17-4.54-3.12-.18-3.54,2.13-3.61,4.55,0,1.05,0,2.1,0,3.15q0,72.23.07,144.44c0,2.79-1.61,7.39,3.2,7.43,5.14,0,3.35-4.72,3.44-7.65.23-6.29.13-12.6,0-18.9,0-2.09.22-3.09,2.85-3.16,11.77-.3,11.77-.42,11.77,11.3,0,3.45,0,6.9,0,10.35a9.89,9.89,0,0,0,.69,4.38c4.57,9.88,9,19.84,13.72,29.64,2.27,4.69,6.38,7.3,11.56,8.35,3.26.66,7.78-1.76,9.54,1.29,1.5,2.6.37,6.72.4,10.17,0,.59,0,1.2,0,1.79-.24,3.32,1.48,4.61,4.6,4.6,4.5,0,9,0,13.49,0,3.16,0,4.53-1.37,4.59-4.64.08-4.28-2-10.27.86-12.38s8.63-.51,13.1-.76c2.5-.13,3.05.89,3,3.15-.16,3.44,0,6.9-.07,10.34-.08,2.83,1.26,4.22,4,4.26,4.8.05,9.6,0,14.4,0,2.94,0,4.38-1.49,4.29-4.49s.28-6-.08-9c-.47-3.79,1.15-4.57,4.5-4.27,9.29.83,15.27-3.52,18.85-12,3.43-8.1,7.23-16,10.94-24a16.55,16.55,0,0,0,1.6-7.34c-.08-11.69,0-23.38,0-35.91,2.42,1.46,4.23,2.45,5.93,3.6a4.43,4.43,0,0,0,5.38,0,136.81,136.81,0,0,0,17-11.71c7.58-6.33,13.07-14.05,14.6-24C213.12,82.32,211.91,68.65,212,55ZM29.81,136.81a21.92,21.92,0,0,0-2.69,0c-7.42,0-7.13,0-7.52-7.65-.21-4.33,1.33-5.6,5.26-5a8.68,8.68,0,0,0,1.35,0c8.13,0,7.92,0,8.17,8.32C34.5,136.22,33.2,137.31,29.81,136.81ZM34.34,114c0,2.58-.39,3.58-3.36,3.57-11.27,0-11.27.12-11.27-11.35V89.56c0-8.08.08-16.16-.06-24.24,0-2.44.52-3.28,3.16-3.33,11.48-.2,11.48-.3,11.48,11.1C34.29,86.71,34.23,100.33,34.34,114ZM24.87,55.64c-4,.11-5.94-.91-5.16-5.14a3.38,3.38,0,0,0,0-.45c0-7.53,0-7.53,7.63-7.54,1.35,0,2.7.07,4.05,0,2.06-.14,2.82.63,3,2.81C35,55.57,35.11,55.38,24.87,55.64ZM81.48,218.31c-5.64.31-4.65-2.92-5-6.35-.39-4.15,1.21-4.75,5-4.94,4.93-.24,5.48,2,4.76,5.85C87.23,216.94,85.72,218.08,81.48,218.31Zm39.43,0c-5.78.36-4.41-3.2-4.86-6.44-.68-4.9,2.13-4.51,5.51-4.81,5.28-.48,4.43,2.83,4.31,6.23C126.85,217.21,125,218.05,120.91,218.31ZM157,176.13l-.57,1.22c-2.6,5.7-5.24,11.39-7.79,17.12-1.93,4.31-5.19,6.3-9.9,6.29q-37.5,0-75,0c-4.67,0-8-1.95-9.9-6.3-2.53-5.73-5.17-11.41-7.76-17.11h0c-3.43-6.86-3.43-6.86,4.17-6.86H153.62C159.7,170.49,159.7,170.48,157,176.13Zm1-12.19q-56.91-.16-113.83,0c-2.63,0-3.19-.82-3.19-3.3q.15-67.73.15-135.43a22.46,22.46,0,0,1,.53-3.53c2.39-4.89,7.11-6.6,11.7-8.27C69.09,7.68,85.52,6.7,102,6.74c15.29,0,30.54,1.12,45.19,5.91,5.29,1.73,11,3.21,13.78,9a79.67,79.67,0,0,1,.1,19.27c-.45,3.57-3.41,7-5.76,10.09-1.18,1.56-3.69.52-5.6.65-1.65.1-3.31,0-5,.1-1.84.13-3.36,1.13-3.31,3,.36,14.2-1.49,28.5,1.3,42.6,2,10.21,8.29,17.76,16.28,24a5.36,5.36,0,0,1,2.35,4.85c-.08,11.4-.12,22.8,0,34.19C161.44,163,160.93,164,158,163.94Zm46.55-69.26c-1.26,8.1-5.69,14.33-11.69,19.59a44.1,44.1,0,0,1-5,3.82c-14.27,9.42-8.29,9.13-22.62-.23-12.42-8.14-17.83-20-17.44-34.78.18-6.73-.07-13.47,0-20.21,0-1.4-.67-3,.66-4.22h0a14.22,14.22,0,0,1,3.1-.23c5.19.74,9.07-.66,10.69-6.14.66-2.26,2.39-2.64,4.55-2.6,6.41.11,12.83.3,19.23-.06,3.39-.19,4.87,1.33,5.94,4,1.33,3.39,3.5,5.05,7.49,4.83,6.15-.35,6.17-.07,5.68,6.19h0C205.19,74.68,206.09,84.71,204.56,94.68Z"/><path class="cls-1" d="M124.7,110.91a3.33,3.33,0,0,0-3.16,2.15c-.41.94-.74,1.91-1.35,3.54a36.38,36.38,0,0,0-7.76-13.52c-3.14-3.57-5.34-7.65-5-12.56.13-2.13.91-4.27-1.56-5.45s-4.75-.2-6.6,1.4a22.66,22.66,0,0,0-3.78,4.43c-3.29,4.82-4.45,10.38-4.76,16.66-1.68-2.27-2.45-4.73-5.39-4.11s-2.69,3.39-3.12,5.4c-.66,3.05-.73,6.3-2.38,9a24.9,24.9,0,0,0-3.17,16.44c1.33,10.57,6.4,20.13,20.67,19.2,5.08-.33,10.2-.12,15.29-.05,8,.12,13.16-3.69,16.33-10.93,4.39-10,1.59-19.63-1.21-29.28A3.22,3.22,0,0,0,124.7,110.91Zm-1.12,27c-2.26,6.88-4.93,8.85-12.09,8.88-5.24,0-10.5-.18-15.74,0-5.54.24-9.15-2-10.93-7.27-3-7-2.28-13.55,2.13-20.81.23,3,0,5.28,2.82,5.6s3.65-1.78,4.52-3.65a30.43,30.43,0,0,0,3.09-13,23.35,23.35,0,0,1,3.33-12.6c3.46,11.46,14.9,18.5,14.77,31.3,0,2.21,2.28,2.45,4.15,2.5h0l4.18-3.86C124.63,129.55,125,133.74,123.58,137.92Z"/><path class="cls-1" d="M100.73,28.78C82.15,29,66.22,44.77,66.2,63c0,1.8,0,3.67,2.28,4.26,1-.91,2.26-.66,3.43-.66h58.73c1.17,0,2.41-.26,3.43.62,2.47-.83,2.2-2.91,2.16-4.83C135.84,43.84,119.69,28.54,100.73,28.78Zm26.14,32.31c-5.85-.07-11.7-.1-17.55,0-2.34.05-3.23-.72-3.1-3.09.16-3,0-6,0-9,0-2.26-.83-3.91-3.25-4-2.6-.09-3.17,1.76-3.16,3.94,0,3-.1,6,.05,9,.12,2.32-.68,3.18-3.07,3.14-7-.11-14.1-.08-21.15,0-3.08,0-3.29-1.26-1.89-3.52h0c1.49-10,10.48-19.15,21-21.46a28.5,28.5,0,0,1,30.62,12.8c1.64,2.66,3.28,5.37,3.32,8.67C130.19,59.86,129.93,61.12,126.87,61.09Z"/><path class="cls-1" d="M68.48,67.26c5.54.08,11.08.23,16.61.22,16.34,0,32.66-.17,49-.26C112.21,66.92,90.35,66.86,68.48,67.26Z"/><path class="cls-1" d="M130.64,66.6H71.91c-1.17,0-2.42-.25-3.43.66,21.87-.4,43.73-.34,65.59,0C133.05,66.34,131.81,66.6,130.64,66.6Z"/><path class="cls-1" d="M72.09,189a47.78,47.78,0,0,0,7.18-.1A3,3,0,0,0,82,185.42a2.72,2.72,0,0,0-2.87-2.81c-1.2-.08-2.4,0-3.6,0v0H72.4c-2,0-3.72.44-3.89,2.75S69.84,188.89,72.09,189Z"/><path class="cls-1" d="M125,189c.74,0,1.48,0,2.22,0,2.84-.12,6.84.83,6.7-3.57s-4.18-2.46-6.26-2.91H125c-2.16,0-4.4,0-4.5,2.94S122.55,189.06,125,189Z"/><path class="cls-1" d="M98.16,189c1.49.1,3,0,4.49,0,2.49,0,5.19,0,5.32-3.28.13-3.63-2.82-3.14-5.17-3.21-.45,0-.9,0-1.35,0H98.31c-2,0-3.68.42-3.77,2.82S95.93,188.86,98.16,189Z"/><path class="cls-1" d="M176.61,64.81a21.26,21.26,0,0,0-20.83,21.4,21,21,0,0,0,42-.24A21.33,21.33,0,0,0,176.61,64.81Zm0,36.9A15.84,15.84,0,0,1,160.9,85.62,15.6,15.6,0,0,1,177,70a15.88,15.88,0,1,1-.37,31.76Z"/><path class="cls-1" d="M182.44,81.83c-1.84,1-3.65,2-5.41,3.16-1.94,1.22-3.58,2.68-5.25-.62-1-1.91-3.44-2-4.16.21-1,3.06,1.75,5.2,3.33,7.42,1.2,1.72,2.91.68,4.36-.22,2.92-1.8,5.86-3.58,8.82-5.31a3.76,3.76,0,0,0,2.27-3C185.63,82,184.69,80.6,182.44,81.83Z"/></svg>