<svg id="Layer_1" data-name="Layer 1" xmlns="http://www.w3.org/2000/svg" viewBox="0 0 225 225"><defs><style>.cls-1{fill:#00b2ce;}</style></defs><path class="cls-1" d="M177,167.3l.13-.09-.16,0Z"/><path class="cls-1" d="M205.71,181.49c6.36-4.48,4-9.27.52-14.1,8.35-6.65,4.7-13.41-.31-19.63-7-8.66-16.32-14.76-25-21.56-4.48-3.5-6-2-7.84,2.53A170.63,170.63,0,0,1,150.34,168c-2.57,3.42-4.89,7.63-10.37,4.15,24.9-35.6,35-57.4,42.4-92.21.95-4.46,2.92-8.87-3.34-12.25-20.61-11.11-40.88-22.8-61.2-34.43a7.47,7.47,0,0,0-8.48,0Q78.89,50.63,48.16,67.66c-3.59,2-5,4.17-4,8.19,4.12,17,7.65,34.22,16,49.92,2.7,10.2,9,18.65,13.93,28.33-6.42-.29-9.37-3.87-11.88-8.66a231.59,231.59,0,0,1-18.63-46.6c-1.08-3.94-1.89-8.27-7.76-6.91l-4.62-1.8c7.19-1.16,10.41-4.15,7.22-12-2.8-6.91-.59-11.92,6.71-15.8,20.67-11,41-22.66,61.22-34.37,5-2.88,9-3.26,14.2-.23q31.22,18.16,63,35.49c5.47,3,7.21,6.45,5.93,12.46-2.57,12.15-5.33,24.25-9.77,35.84-2.07,5.41-1.49,8.29,3.9,11.4,11.38,6.56,22,14.35,30.37,24.65C224.72,160.82,221.49,173.63,205.71,181.49Z"/><path class="cls-1" d="M206.19,175.5l-8.65,10.22c-3.71,3.5-7.44,7-12.06,11.38-1.54-7.19-5.77-7.73-11.82-7.67C117.77,190.13,68.54,171,24.15,138A59.36,59.36,0,0,1,9.31,122.28c-8.27-13-5.29-22.7,9-28.85,4.06-1.77,8.17-3.82,12.85-3.3a6.55,6.55,0,0,0,2,2.43c-.46.1-.89.2-1.33.33-22.88,6.49-26,18.16-8.23,34.37,15.55,14.18,33,25.72,53.67,31.43,28.38,12.7,58.17,18.55,89.21,18.49,7,0,13.56.23,10.51-9.89l.12-.08c8.07,1.49,15.14,2.77,22.18,4.08l6.64,2.57C206,174.4,206.12,175,206.19,175.5Z"/><path class="cls-1" d="M33.17,92.56l2.66-.62L31.2,90.13A6.74,6.74,0,0,0,33.17,92.56Z"/><path class="cls-1" d="M207.18,174.34c-.35.39-.66.76-1,1.16-.07-.54-.15-1.1-.25-1.64C206.35,174,206.77,174.17,207.18,174.34Z"/><path class="cls-1" d="M121,188.77c-7,7.43-12,2.1-17.45-2.08s-9.52-10-19.25-9.29c5.66,5.22,10.1,9.75,15,13.73,14,11.41,14.91,11.3,30.58-2C125.94,188,123.06,186.52,121,188.77Z"/><path class="cls-1" d="M130.2,81.51c1.13-7.76-.6-14.32-8-18.5-6.32-3.55-12.79-4-18.36.61-6.41,5.31-8.08,12.61-5.34,20.56.94,2.75,1.23,6.15,4.77,7.46,2.16-2.8,0-5.23-.54-7.69-.77-3.41-1.22-6.81-.36-10.21,1.51-5.93,5-10.37,11.48-9.68,6.64.72,8.47,6.24,8.85,12.13a12.5,12.5,0,0,1-1.5,7c-7.53,13-14.89,26.21-26.87,35.93A4,4,0,0,1,93,122c-7.48,6.88-7.72,13.42-1.67,19.77Q107.29,119.63,123,97.36C126.4,92.56,129.33,87.45,130.2,81.51Z"/><path class="cls-1" d="M121.18,83.2a12.5,12.5,0,0,0,1.5-7c-.38-5.89-2.21-11.41-8.85-12.13-6.46-.69-10,3.75-11.48,9.68-.86,3.4-.41,6.8.36,10.21.56,2.46,2.7,4.89.54,7.69-3.54-1.31-3.83-4.71-4.77-7.46-2.74-8-1.07-15.25,5.34-20.56,5.57-4.63,12-4.16,18.36-.61,7.42,4.18,9.15,10.74,8,18.5-.87,5.94-3.8,11-7.18,15.85q-15.7,22.27-31.66,44.41a30,30,0,0,0,2.43,2.28Q110,120.77,126.14,97.51c4.4-6.32,7.93-12.89,7.35-21A20.37,20.37,0,0,0,114,57.43C103.65,57.07,96,63.87,94.75,75c-1,9.25,2.4,17,8.61,24,4.43-5.85,4.23-5.8,1.49-15.65-1.61-5.81-1.84-11.71,3.63-16.05,2.69-2.13,5.78-2.72,8.48-.29,4.89,4.4,4.06,9.82,2,15.24a18.87,18.87,0,0,1-2.16,4.66c-7.49,10.24-14,21.18-22.91,30.36a4.45,4.45,0,0,1,.39,1.84C106.29,109.41,113.65,96.23,121.18,83.2Z"/><path class="cls-1" d="M91.36,141.77c-6-6.35-5.81-12.89,1.67-19.77a4,4,0,0,0,1.28-2.87l-.07.06c-1,.4-1.92.83-2.84,1.29L79.72,135.25c4.58.69,7,4.62,10.33,7.05l1.22-.41Z"/><path class="cls-1" d="M91.36,141.77l-.09.12-1.22.41a10,10,0,0,0,3.74,1.75A30,30,0,0,1,91.36,141.77Z"/><path class="cls-1" d="M94.31,119.13a4.45,4.45,0,0,0-.39-1.84l-2.52,3.19c.92-.46,1.86-.89,2.84-1.29Z"/><path class="cls-1" d="M121.74,110.27c-3.76,2.75-7.16,7-2.32,12.9,5.37,6.48,9.63,13.89,14.27,20.75l11.42-9.4c-5.23-6.42-10.17-13-15.72-19C127.33,113.25,126.33,106.91,121.74,110.27Z"/></svg>