<svg id="Layer_1" data-name="Layer 1" xmlns="http://www.w3.org/2000/svg" viewBox="0 0 225 225"><defs><style>.cls-1{fill:#00b2ce;}</style></defs><path class="cls-1" d="M216.5,113.42c-.31-5.22-3.42-7.16-8.26-5.12a64.5,64.5,0,0,1-17.94,5c-7.9.88-15.25-.33-21.37-6-5.15-4.75-10.8-4.7-16,.09a22.63,22.63,0,0,1-11.79,5.7c-8.35,1.4-16.25-.62-24-3.51a14.08,14.08,0,0,1-4-2.38c-7-6-14.82-10.15-23.91-11.24a159.5,159.5,0,0,0-21.09-.83,59.41,59.41,0,0,0-57.7,46.69c-3.92,17.37-2.14,34.64,1.35,51.82a4.38,4.38,0,0,0,4.53,3.7c6.36.09,12.76.14,19.12,0,2.9,0,4.65-2.14,4.68-5a20.53,20.53,0,0,0-.24-2.92,116.5,116.5,0,0,1-1.28-28.71c.64-7.35,1.78-14.61,5-21.35.38-.76,1.26-1.26,1.9-1.87a8.05,8.05,0,0,1,.81,2.34c.52,16.83,1,33.62,1.45,50.44.14,5.89,1.47,7.19,7.45,7.19,22.51,0,45.05,0,67.57,0a4,4,0,0,1,3.7,1.87,79.33,79.33,0,0,0,25,22.94c6.27,3.63,12.53,3.68,18.79.05,9.14-5.31,17.18-12,23.28-20.62a194.11,194.11,0,0,0,11.53-19.26A4.94,4.94,0,0,0,201,175c-2.28-.15-4,1.11-5.24,3.82-6.57,14.23-16.09,25.93-29.59,34.23-3.63,2.26-6.85,2.21-10.46,0-13.9-8.59-23.61-20.71-30.09-35.52-7.35-16.77-10.13-34.47-10.43-52.65,0-1.61,0-3.22,0-5.1,16.37,5.25,32,6.84,45.79-5.93,13.71,12.77,29.34,11.2,45.76,5.93,0,1.78.1,3.2,0,4.63-.59,7.61-1.18,15.25-1.82,22.87-.31,3.58,1.21,5.93,4.2,6.31s5.19-1.42,5.74-4.91A162.55,162.55,0,0,0,216.5,113.42ZM118,185.05c.27.69.6,1.33,1,2.23H57.82c-.07-1.35-.19-2.68-.21-4-.43-14.85-.83-29.73-1.31-44.58-.16-5.81-3.34-9.87-8.44-11C42.56,126.38,37.75,128.7,35,134c-3.85,7.38-5.39,15.39-6.22,23.58a124.11,124.11,0,0,0,.33,27.85,18.41,18.41,0,0,1,0,2c-2.54,0-5,0-7.45-.05-.38,0-1-.66-1.07-1.11-2.68-15.35-3.82-30.73.66-46a49,49,0,0,1,45-34.9,187.79,187.79,0,0,1,23.11.93c5.2.52,9.78,3.22,14.1,6.19a3.73,3.73,0,0,1,1.8,3.72c-.81,18,1,35.69,6.45,52.91C113.48,174.54,115.88,179.76,118,185.05Z"/><path class="cls-1" d="M139.29,39.11a9.71,9.71,0,0,0-9.56-9.7c-1.47-.07-1.9-.62-2.23-1.87C120.84,2.48,92.53-6.7,71.87,5.09c-9.4,5.34-15,13.57-17.66,24.27-.9,0-1.63,0-2.37,0-6.17.05-10.32,4.18-10.41,10.3,0,2.18-.08,4.37,0,6.52a9.7,9.7,0,0,0,9.3,9.52c1.83.07,2.51.66,3.18,2.3A39.11,39.11,0,0,0,97.82,82.37c14.38-2.71,24.25-11.2,29.82-24.68.46-1.07.69-1.9,2.24-2a9.66,9.66,0,0,0,9.41-9.63C139.39,43.79,139.39,41.44,139.29,39.11ZM91.75,73C79.79,73.3,67.93,66,64.2,56h52.93C114.29,64.93,102.59,72.71,91.75,73ZM129,45.5H51.67v-6h5.46c4.58,0,6-1.33,6.62-5.82A26.64,26.64,0,0,1,83.87,11c.55-.14,1.14-.19,2-.35,0,2.27,0,4.34,0,6.4.07,3.3,2.09,5.44,5,5.39s4.87-2.09,4.94-5.27c.07-2.09,0-4.17,0-6.48.81.08,1.4,0,2,.17a26.77,26.77,0,0,1,20.59,22.45c.64,5,2,6.09,7,6.12H129Z"/><path class="cls-1" d="M159.38,194.51c-4-.21-7.32-1.68-9.45-5-3.91-6.14-7.69-12.36-11.46-18.59a5,5,0,1,1,8.56-5.28c3.55,5.66,7,11.38,10.54,17a10.11,10.11,0,0,0,1.68,1.65,8.84,8.84,0,0,0,1.61-1.94q9.42-21.68,18.75-43.38c.14-.34.28-.69.44-1,1.33-2.8,4-4,6.67-2.88a5,5,0,0,1,2.63,6.75c-1.65,4-3.43,8-5.15,12Q177,170.46,169.88,187.1A11.47,11.47,0,0,1,159.38,194.51Z"/></svg>