<svg id="Layer_1" data-name="Layer 1" xmlns="http://www.w3.org/2000/svg" viewBox="0 0 225 225"><defs><style>.cls-1{fill:#00b2ce;}</style></defs><path class="cls-1" d="M121.14,197.74c-.58-.06-1.16,0-1.74,0-7.41-.11-14.84.36-22.23-.23-17-1.34-31.32-15.89-32.35-32.93-.49-8,0-16.1-.18-22.6v-23.8c0-4.08,0-4,4.16-4.12,1.54,0,2,.31,2,2q-.1,22.85,0,45.71a29.8,29.8,0,0,0,29.78,29.89c6.54,0,13.09,0,19.64,0,1.37,0,2.58-.27,2.59-1.84s-1.23-1.84-2.59-1.83c-6.43,0-12.86.05-19.29,0-14.56-.12-26.23-11.38-26.4-25.62-.13-10.78,0-21.56-.05-32.33,0-1.05.29-1.49,1.36-1.74a35.88,35.88,0,0,0,27.53-29.72c.18-1.08-.24-2.47.55-3.16s2.12-.19,3.21-.26c5.66-.37,9.83-3,12-8.29s1.1-10-2.67-14.15a2.72,2.72,0,0,1-.7-2c0-3.77,0-7.53,0-11.3,0-4.28.15-8.58-.58-12.83C110.74,21,88.24,3.89,62.55,6.53A47.77,47.77,0,0,0,20,52.72c-.11,5.79-.06,11.59,0,17.38A3.81,3.81,0,0,1,18.88,73a12.18,12.18,0,0,0-3.34,8.17c-.27,8,5.62,13.84,14,13.85,1.86,0,2.36.5,2.56,2.3a35.51,35.51,0,0,0,27,30.72c1.6.39,1.92,1,1.91,2.52q-.11,15.56,0,31.11a39.56,39.56,0,0,0,39.66,39.63h18.6c.64,0,1.28,0,1.91,0a1.65,1.65,0,0,0,1.63-1.71A1.69,1.69,0,0,0,121.14,197.74ZM25.92,40A44.55,44.55,0,0,1,71.46,10c19,1.36,35.91,16.17,39.67,35.08a46.44,46.44,0,0,1,.94,8.79c0,5.15,0,10.31,0,15.59-.85-.24-1.6-.48-2.38-.65-2.69-.58-2.88-.58-2.64-3.38a14.39,14.39,0,0,0-2.33-8.67c-5.09-8.8-12.3-15.59-20.3-21.64-2.54-1.92-5.15-3.75-7.74-5.59-1.78-1.27-2.74-1-3.68.91C65,46.75,52.15,56.63,34.28,60c-1.25.23-2.52.36-3.79.49a1.85,1.85,0,0,0-1.9,2c0,.35,0,.7,0,1-.07,1.61.44,3.69-.38,4.69s-2.95.84-4.66,1.23C23.88,59.51,22.61,49.59,25.92,40Zm10.47,60.71a32.54,32.54,0,0,1-.84-6.89c0-1.84-.6-2.31-2.44-2.37-2.07-.07-4.17.22-6.23-.24a9.57,9.57,0,0,1,1.73-18.94c.52,0,1,0,1.56,0a1.87,1.87,0,0,0,2-2.08c0-1.33.14-2.68,0-4-.17-1.63.32-2.26,2-2.5A54.1,54.1,0,0,0,63.4,49.76,55.09,55.09,0,0,0,74.87,35l.89-1.61c10.33,7.26,20.16,14.9,26.33,26.24a9,9,0,0,1,1.3,5.1c-.11,1.56,0,3.13,0,4.69,0,2.26.51,2.81,2.74,2.77a10.39,10.39,0,0,1,5.2,1.1,9.57,9.57,0,0,1-4,18c-1.56.07-3.13,0-4.7,0-2.06,0-2.54.49-2.59,2.54a31.93,31.93,0,0,1-8,20.59c-.45.52-.95,1-1.42,1.5l-.29-.1c1.78-7.6,3.58-15.19,5.33-22.8A15,15,0,0,0,88,75.91a5.69,5.69,0,0,1-3.33-4.27C83.05,63.37,75.87,57.91,67.37,58A17.06,17.06,0,0,0,50.91,72.28a4,4,0,0,1-2.39,3.18,15.15,15.15,0,0,0-8.47,10.61,15,15,0,0,0,0,6.72q2.58,11.07,5.18,22.13c.1.44.17.89.33,1.72A32.55,32.55,0,0,1,36.39,100.66ZM61,116.17c-.17,2.81,0,5.63,0,8.56a32.23,32.23,0,0,1-9.94-3.9,2.1,2.1,0,0,1-1-1.54c-2.14-9.12-4.33-18.23-6.39-27.36a11.35,11.35,0,0,1,5.66-12.7,7.94,7.94,0,0,1,.75-.42,6.79,6.79,0,0,0,4.55-6.11c.85-6.75,7.2-11.3,14.13-10.92A13.5,13.5,0,0,1,81.45,74.46a3.25,3.25,0,0,0,2,3.1A34.68,34.68,0,0,1,87,79.62a11.33,11.33,0,0,1,5,12.19c-2.09,9.13-4.26,18.24-6.37,27.36a2.37,2.37,0,0,1-1.16,1.62,35.21,35.21,0,0,1-8.93,3.74c-1.06.29-1.15-.06-1.14-.93,0-2.78,0-5.56,0-8.34,0-1.05.39-1.32,1.32-1.21a10.75,10.75,0,0,0,1.39,0,1.79,1.79,0,0,0,2-2q0-11.3,0-22.59a1.9,1.9,0,0,0-2.15-2.13H58.64a2,2,0,0,0-2.24,2.24q0,11.2,0,22.41c0,1.68.94,2.32,2.46,2.1C60.63,113.79,61.14,114.4,61,116.17Zm-1-7.06q.06-8.43,0-16.85c0-1,.28-1.28,1.26-1.27q6.52.08,13,0c1,0,1.27.32,1.25,1.29-.06,2.84,0,5.68,0,8.51s0,5.57,0,8.35c0,1-.27,1.3-1.27,1.29q-6.53-.08-13,0C60.25,110.44,60,110.06,60,109.11Z"/><path class="cls-1" d="M213.74,133.8c-10.13-3.6-20.19-7.38-30.3-11a1.92,1.92,0,0,1-1.53-2.2c.08-4.69.09-9.39,0-14.08,0-1.43.46-1.77,1.76-1.66a34.18,34.18,0,0,0,3.65,0c1.85,0,2.38-.56,2.4-2.37,0-2.84,0-5.68,0-8.52A1.91,1.91,0,0,1,191,91.86q6.8-3,13.54-6.23c5.61-2.66,8.56-7.14,8.57-13.35.05-19.52,0-39,0-58.56,0-2.49-.43-2.88-3-2.89h-60.3c-2.35,0-2.9.53-2.9,2.82q0,29.12,0,58.22c0,6.48,3,11.15,8.88,13.9,4.3,2,8.59,4,12.93,5.92a2.3,2.3,0,0,1,1.62,2.61c-.1,2.6,0,5.21,0,7.82,0,2.24.51,2.7,2.8,2.72,1.28,0,2.56.06,3.83,0,1-.06,1.24.35,1.23,1.29q-.06,6.69,0,13.38c0,1-.15,1.33-1.25.9-3.5-1.35-7-2.59-10.57-3.9a3.57,3.57,0,0,0-2.67,0q-24,8.83-48,17.61a2.47,2.47,0,0,0-1.86,2.71,87.45,87.45,0,0,0,.66,11.09c4.28,31.3,20.38,54.53,47.83,70a4.84,4.84,0,0,0,5.43,0c31.07-17.84,47.33-44.57,48.49-80.43A3.25,3.25,0,0,0,213.74,133.8ZM152.15,14.53c9.32,0,18.64,0,28,0s18.41,0,27.62,0c1.27,0,1.76.21,1.76,1.65q-.09,21.2,0,42.38c0,1.31-.42,1.69-1.61,1.79-9.91.86-18.7-1.62-25.94-8.65-8.41-8.15-18.42-11.69-30.06-10.51-1.12.12-1.21-.23-1.21-1.15,0-8,0-16.09,0-24.14C150.64,14.66,151.12,14.53,152.15,14.53ZM171.54,89c-4.71-2.2-9.44-4.37-14.16-6.56A10.68,10.68,0,0,1,150.68,72q0-6.17,0-12.34c0-4.4,0-8.81,0-13.21,0-1.11.31-1.5,1.41-1.61,10.84-1.06,20,2.31,27.74,10,5.41,5.36,12.15,8.11,19.63,9.15a29.5,29.5,0,0,0,8.65,0c1-.16,1.43.08,1.39,1.22-.09,2.43,0,4.87,0,7.3a10.24,10.24,0,0,1-5.92,9.5c-5,2.48-10.18,4.72-15.26,7.09a4.61,4.61,0,0,1-2,.35c-4.11,0-8.23,0-12.34,0A5.31,5.31,0,0,1,171.54,89Zm2.82,11.8c-1-1.07-.16-3.62-.35-5.5s.35-2.27,2.13-2.16c2.88.17,5.77.08,8.65,0,1,0,1.34.19,1.3,1.22-.08,1.9-.06,3.81,0,5.71,0,.82-.23,1.13-1.08,1.1-1.67-.06-3.34,0-5.38,0C178.05,101,175.46,102,174.36,100.76Zm38.2,38.87a16,16,0,0,0-.1,2.08c-1.66,24.56-11.55,45.11-30,61.51a85.71,85.71,0,0,1-16.22,11.25,2.11,2.11,0,0,1-2.35.06c-25-14-40.11-35-45.22-63.21a80.76,80.76,0,0,1-1.14-12.61,1.61,1.61,0,0,1,1.29-1.85q22.56-8.22,45.08-16.53a3.32,3.32,0,0,1,2.48.12c14.69,5.4,29.39,10.82,44.12,16.12C212.23,137.17,212.86,137.94,212.56,139.63Z"/><path class="cls-1" d="M50,135.3c0-2,0-4.06,0-6.09,0-1.24-.35-2.26-1.75-2.3s-1.91,1-1.9,2.32c0,3-.12,6,.06,9,.1,1.7-.48,2.21-2.09,2.48A87.32,87.32,0,0,0,14.54,151.7c-1.7,1-3.35,2.06-5,3.17a1.71,1.71,0,0,0-.45,2.59,1.72,1.72,0,0,0,2.46.45,10.13,10.13,0,0,0,.89-.55A85.19,85.19,0,0,1,47.83,143.9,2.17,2.17,0,0,0,50,141.37C50,139.35,50,137.32,50,135.3Z"/><path class="cls-1" d="M87.93,144a78,78,0,0,1,11.51,2.45,79.3,79.3,0,0,1,9.46,3.35,1.91,1.91,0,0,0,2.38-.36,1.72,1.72,0,0,0,.27-2.09,2.8,2.8,0,0,0-1.67-1.16,85.1,85.1,0,0,0-18.76-5.39c-1.22-.2-1.74-.58-1.69-1.94.12-3.23.06-6.48,0-9.72,0-1.24-.51-2.2-1.9-2.19s-1.84,1-1.83,2.23c0,2.09,0,4.17,0,6.25s0,4.05,0,6.07C85.69,143,86.37,143.75,87.93,144Z"/><path class="cls-1" d="M62.75,76.74c.92-.88,1.78-1.81,2.71-2.68a3.33,3.33,0,0,1,4.94,0c.88.82,1.71,1.72,2.58,2.56a1.81,1.81,0,0,0,2.76.17,1.76,1.76,0,0,0-.1-2.75c-1-1-2-2.07-3.08-3a7.25,7.25,0,0,0-4.72-1.74l-.92.12c-3.14.32-4.77,2.82-6.79,4.75A1.74,1.74,0,0,0,60,76.88,1.78,1.78,0,0,0,62.75,76.74Z"/><path class="cls-1" d="M183,41.72h-6.56c-1.24,0-2,.6-2,1.84s.84,1.85,2,1.87q3.28,0,6.57,0c1.25,0,2.16-.57,2.11-2S184.25,41.71,183,41.72Z"/><path class="cls-1" d="M176.31,24.62q3.47.06,6.91,0a1.85,1.85,0,1,0,0-3.7c-1.1,0-2.19,0-3.28,0h0c-1.21,0-2.42,0-3.63,0a1.74,1.74,0,0,0-1.85,1.85A1.76,1.76,0,0,0,176.31,24.62Z"/><path class="cls-1" d="M176.16,35c2.41.08,4.84.09,7.25,0a1.69,1.69,0,0,0,1.74-2,1.76,1.76,0,0,0-2-1.73c-1.1,0-2.19,0-3.28,0s-2.42,0-3.63,0a1.75,1.75,0,0,0-1.84,1.87A1.7,1.7,0,0,0,176.16,35Z"/><path class="cls-1" d="M203.35,140.46q-18.3-6.69-36.61-13.42a4.46,4.46,0,0,0-3.33,0q-18.69,6.9-37.43,13.71c-1.64.6-2.43,1.46-2,3,0,.71,0,1.17.11,1.63.18,1.43.34,2.87.58,4.3,4.18,25.11,17.19,44.28,38.83,57.64a2.72,2.72,0,0,0,3.19,0,81.23,81.23,0,0,0,39.45-62.45C206.4,141.57,206.4,141.57,203.35,140.46Zm-1,4.84q-4.54,37.08-35.7,57.63a2.5,2.5,0,0,1-3.22,0c-20-13.21-31.92-31.61-35.41-55.39-.12-.8-.22-1.6-.39-2.8-.14-.46.27-.83,1-1.12q17.76-6.47,35.5-13a2.48,2.48,0,0,1,1.82.05q17.58,6.45,35.17,12.88C202.05,143.9,202.52,144.18,202.39,145.3Z"/><path class="cls-1" d="M179.46,156.36a1.73,1.73,0,0,0-2.47.41,11.73,11.73,0,0,0-.7,1l-11.21,16.18c-.44-.62-.78-1.07-1.11-1.54q-5.15-7.43-10.27-14.85c-.79-1.15-1.69-2.15-3.09-1.14s-.71,2.19.07,3.31q6.13,8.84,12.25,17.7c1.61,2.32,2.66,2.3,4.29-.07q6.15-8.83,12.26-17.69a6.2,6.2,0,0,0,.57-.87A1.73,1.73,0,0,0,179.46,156.36Z"/></svg>