<svg id="Layer_1" data-name="Layer 1" xmlns="http://www.w3.org/2000/svg" viewBox="0 0 225 225"><defs><style>.cls-1{fill:#00b2ce;}</style></defs><path class="cls-1" d="M99.69,171.11a164.1,164.1,0,0,0,3.46-30.27c0-2.14,0-4.28.16-6.42.24-3.35,2.69-4.57,5.5-4.69s4.35,1.58,4.6,4.66c1,12,1,24.14,3.2,37,5-10.52,6.93-21,9.28-31.29,1.15-5,2.21-10.08,3.33-15.11.5-2.23.95-3.87,4.15-2.52,5.23,2.2,10.81,3.55,16.1,5.61,5.5,2.15,9.07,6.08,9.95,12.19,2.24,15.33,4.64,30.64,6.8,46,.71,5.06-1.82,7.24-8,7.25q-33.48.06-67,0c-11.08,0-22.15,0-33.22,0-7,0-9.07-2.47-8.08-9.23,2.06-14.1,4.17-28.19,6.24-42.29,1.1-7.47,5.52-12.18,12.41-14.67,4.51-1.63,9.22-2.71,13.69-4.44,3.17-1.23,4.26-.24,5,2.78,2.43,10.57,4.88,21.14,7.63,31.63C96.11,162,98.07,166.52,99.69,171.11Z"/><path class="cls-1" d="M108.59,45.35c19,4.31,32,13.56,27.32,31.65a5.61,5.61,0,0,0,1.51,5.79c2.44,2.59,2.32,5.68-.52,7.95-4.29,3.42-7,8-10,12.39a55.21,55.21,0,0,1-5.22,6.75c-8.72,9.22-18,9.2-26.67-.13a52.28,52.28,0,0,1-6-8.17c-2.54-4.1-5.12-8.08-9-11.17-2.39-1.92-3.14-4.9-.83-7,2.5-2.24,2.07-4.44,1.78-7.12C79.13,59.14,91.71,45.07,108.59,45.35Z"/><path class="cls-1" d="M175.29,182.63c-2.64-.21-2.22-2.38-2.47-4-1.71-11.45-3.29-22.92-5.08-34.36-1.7-10.86-6.39-19.62-17.67-23.49,5.6-4,8.29-3.65,12.65,1,3.05,3.25,6.3,6.32,9.5,9.42,2.52,2.43,5,2.34,7.41-.25,3.4-3.66,6.91-7.23,10.16-11,1.85-2.17,3.71-3.27,6.46-1.92a6.07,6.07,0,0,0,1,.36c20.25,6.22,21.64,8.09,23.2,29.35.68,9.24,1.82,18.44,2.69,27.67.31,3.26.65,6.66-4,7.25Q197.22,181.68,175.29,182.63Z"/><path class="cls-1" d="M63.21,121.22c-15.6,9.35-13.63,25.55-16.49,39.69-1.16,5.75-1.61,11.65-2.32,17.48-.37,3-1.81,4.42-4.93,4.38-9.64-.12-19.29,0-28.93-.21-7.41-.21-9.31-2.84-8.07-10.23q3.3-19.77,6.62-39.53c1.12-6.62,7.84-12.71,14.3-13.37,2.24-.22,2.26,1.31,2.72,2.5,2.65,6.95,8.16,11.55,13.32,16.48,1.58,1.51,2.54,1.12,3.93-.24,5.1-5,10.62-9.57,13.07-16.64C58.14,116.62,60.76,121.62,63.21,121.22Z"/><path class="cls-1" d="M70.47,104.26c-3.92.71-7.37,1.48-10.87,1.92a19.11,19.11,0,0,0-10.12,4.32c-5.91,4.86-10.43,5-16.31,0-6.23-5.19-14.12-4.17-21.7-6.61,6.16-6.87,6.07-15.19,6.15-23.64.13-13.37,10.58-24,23-24C53.8,56.34,63.28,65.9,64,79.82,64.68,94.69,64.79,95.14,70.47,104.26Z"/><path class="cls-1" d="M185.52,51.24c1.92,2.65,1.8,7.21,6.67,5.5.21-.07.78.64,1.06,1.07,8.06,12.35,10.46,31-.95,42.17-2.38,2.34-4,5.46-6.18,8-6.21,7.19-14,7.48-20.84.87a36.07,36.07,0,0,1-6.12-8,20.79,20.79,0,0,0-5.48-6.47c-2.56-1.9-3.75-4.35-1.87-7.37,1-1.53.73-3,.43-4.58-2.59-14.26,5.64-25.3,20.1-27.05,2.17-.26,4.77.58,5.89-2.44.48-1.31,1.48-.59,2.09,0C182.74,55.1,184.2,53.33,185.52,51.24Z"/><path class="cls-1" d="M175.29,182.63c1.5-1.46,3.38-.88,5.09-.89q16.85-.06,33.69,0c1.71,0,3.59-.57,5.08.88Z"/><path class="cls-1" d="M35,130.34H45.71C41.22,137.14,41.22,137.14,35,130.34Z"/></svg>