<svg id="Layer_1" data-name="Layer 1" xmlns="http://www.w3.org/2000/svg" viewBox="0 0 225 225"><defs><style>.cls-1{fill:#00b2ce;}</style></defs><path class="cls-1" d="M196,173.23c-1.08-7.53-2.19-14.83-3.16-22.15-.82-6.19-3-12.66-1.93-18.54,3.23-18.27-5.68-32-15.16-46.22-1.1.25-2.51.15-3.25.81-11.34,10.15-24,5.64-36.23,2.89-2.36-.53-4-4.08-6-6.24,2.5-1.46,5.45-4.62,7.42-4.1,14.27,3.79,24.08-2.69,33.9-12C182.81,57.05,191.09,59.18,198,73c2.27,4.51,4,9.35,6.6,13.62,6.63,10.77,6.16,21.86,5.19,34.18-1.57,19.85.17,40,.52,60.08l13.74,1.21v11.52H.92v-12H140.54c13.29,0,21.73-7.58,23-20.51.4-4.14,1.56-8.32,1.27-12.4-1.19-16.49,9.15-25.83,21.78-36-1.22,10.06,2.35,18.52-4.65,27.15-3.67,4.54-2.5,13.09-3.33,19.84s-1.41,13.58-2.4,23.35Z"/><path class="cls-1" d="M110.31,143.21v32.26H63.67V143.21Z"/><path class="cls-1" d="M10.34,175.46V143.29H57v32.17Z"/><path class="cls-1" d="M39.89,103.64H85.77v32.92H39.89Z"/><path class="cls-1" d="M142.37,102.1H95.87V68.77c14.59,0,29.29-.17,44,.24,1.49,0,2.88,3.54,5.41,6.89-4.06.32-5.74.66-7.38.56-5.3-.34-9.8.83-10.53,6.9-.71,5.9,3.12,8.45,8.37,9.51C140.47,93.82,145.65,94.56,142.37,102.1Z"/><path class="cls-1" d="M33.28,104v32.6H10.49V104Z"/><path class="cls-1" d="M139,175.64H116.55V143.15H139Z"/><path class="cls-1" d="M183.26,38.73l-33.8,11.78c1.56-10.92,1.15-21.79,14.62-23.7C173.13,25.52,179.42,29.12,183.26,38.73Z"/><path class="cls-1" d="M156.45,52l24.89-8.5c2.09,8.94-.83,14.37-8.26,16.91S160,60.18,156.45,52Z"/></svg>