<svg id="Layer_1" data-name="Layer 1" xmlns="http://www.w3.org/2000/svg" viewBox="0 0 225 225"><defs><style>.cls-1{fill:#00b2ce;}</style></defs><path class="cls-1" d="M217.26,103.1c-8.42-8.09-10.72-15.72-6.34-27,5.34-13.74,5.32-12.86-8.25-17.38-10.92-3.64-16-9.36-17.2-21.15-1.51-15.29-.28-14.14-15.91-12.34-11.5,1.32-17.79-2.1-23.66-11.55-7.79-12.57-6.35-13-19.59-4.45-9.35,6-16.71,6.34-26.3.16C87,1,88.44.48,80,13.9c-5.79,9.25-11.92,12.64-23.27,11.37-16.39-1.82-14.55-2.9-16.17,12.59C39.36,49.53,34.31,55,23.65,58.65c-13.44,4.58-13.87,3.44-8.52,17.28,4.38,11.35,2.3,19.19-6.45,27.41-10.51,9.88-9.79,9.24.05,18.48,9.05,8.51,10.65,16.6,6.23,27.91-5.24,13.44-4.23,12.5,8.25,16.56,11.27,3.67,16.37,9.58,17.5,21.51,1.4,14.7.38,13.8,15.12,12C68,198.37,75,202.5,81,212.6c6.26,10.55,6.25,11.87,17.86,3.85,10.21-7,18.59-6.71,28.63.13,11.57,7.88,10.8,6,18-4.05a22.58,22.58,0,0,0,2.1-2.94c3.89-7.89,9.51-12.23,18.79-9.55a11.38,11.38,0,0,0,3.09,0c15.73.37,14.5,2.85,16-12.52,1.18-11.83,6.32-17.43,17.19-21.14,12.46-4.27,13.82-3,8.39-17-4.33-11.13-2.72-19.05,6.15-27.46C227.14,112.61,228,113.43,217.26,103.1Zm-10.84,17.8c-7.89,7.32-9.51,14.51-5.73,24.51,4.06,10.72,3.37,11-7.44,15.53-13.07,5.51-13.06,5.51-15.33,19.66a25.25,25.25,0,0,0-.74,4.58c.18,5.91-2.76,6.84-8.06,6.26-18.23-2-18.25-1.81-28.84,13.11-4.7,6.63-5.26,7.38-11.62,2.6-10.71-8.05-20.31-8.07-31.06-.07-6.53,4.86-7.09,4.1-11.7-2.4a25.47,25.47,0,0,1-3-4.23c-4-9.09-11-11.22-20.14-9.7-4,.67-9.09,2.53-12.07.19s-2.59-7.69-2.65-11.71c-.15-10.37-5.69-15.27-15-18.45-11.2-3.82-11.69-4.69-7.52-15.8,3.62-9.65,2.53-17-5.51-23.56-3-2.46-7.18-6-7.13-9s4.27-6.43,7.28-8.94c7.56-6.3,9.09-13.12,5.5-22.6-4.46-11.8-3.88-12.6,8.08-16.89,8.64-3.1,14.48-7.37,14-17.33a2.34,2.34,0,0,1,.14-.5c1-4-.16-9.65,2.72-11.65s7.91-.42,13.27-.42c9.27,3.49,14.85-2.23,20-10.45,6.2-9.9,7.13-10.32,16.69-3.83,9,6.08,16.3,5.82,25.15-.13,9.44-6.35,10.62-6.13,16.25,3.62,5.28,9.15,11.85,12.79,22.19,11.06,3.75-.63,8.68-2.51,11.43,0s2.4,7.42,2.46,11.3c.16,10.45,5.51,15.66,15.24,18.78,11,3.53,11.55,4.51,7.44,15.39-3.8,10.06-2,17.19,5.81,24.46C214.73,112,214.76,113.15,206.42,120.9Z"/><path class="cls-1" d="M120.4,73.15c-4,.12-7.93,0-11.89,0-8.16,0-9,.92-8.32,8.87q1.86,21.09,3.79,42.17c.78,8.6.79,8.6,9.32,8.6,3.27-.28,8,1.39,8.58-4.37,1.54-16.46,2.81-32.94,4.24-49.41C126.48,74.79,124.57,73,120.4,73.15Zm-3.74,13c-1.12,12.36-2.17,24.73-3.24,37.09l-.72,0c-1.07-12.36-2.11-24.72-3.25-37.08-.26-2.83,0-4.37,3.61-4.38S116.92,83.37,116.66,86.15Z"/><path class="cls-1" d="M143.71,73.18h-5.18c-9.45,0-10,.81-9,10,1.42,14.22,2.67,28.46,3.63,42.71.33,4.94,1.94,7.48,7.17,6.91a27.77,27.77,0,0,1,4.65,0c4,.27,5.93-1.39,6.26-5.59,1.09-13.9,2.36-27.79,3.73-41.66C156.14,73.36,156.07,73.18,143.71,73.18Zm1.92,14c-.92,12-2,24-3,36l-.74,0c-1.08-12-2.19-24-3.2-36-.21-2.54-1.32-5.38,3.5-5.41S145.82,84.74,145.63,87.17Z"/><path class="cls-1" d="M84,73.18c-1.73,0-3.45,0-5.17,0-7.75,0-8.34.42-7.73,8.34,1.19,15.45,2.68,30.87,4,46.31.28,3.32,1.79,5.06,5.21,5,2.06,0,4.14-.12,6.2,0,4.32.3,6.2-1.6,6.51-6,.94-13.39,1.72-26.82,3.35-40.14C98.22,71,96.17,73.27,84,73.18Zm3.38,14.48c-.87,11.85-2,23.68-3.1,35.52h-.75q-1.53-18-3-36c-.24-2.92-.93-5.73,4-5.42C89.65,82.09,87.49,85.53,87.34,87.66Z"/><path class="cls-1" d="M83.58,134.14a11.73,11.73,0,0,0,.3,23.45c6.36,0,11.92-5.63,11.76-11.88A11.87,11.87,0,0,0,83.58,134.14Zm.14,14.39a2.34,2.34,0,0,1-2.46-2.6c0-1.48.66-2.66,2.29-2.8a2.71,2.71,0,1,1,.17,5.4Z"/><path class="cls-1" d="M113.19,134.19a11.81,11.81,0,0,0-11.9,11.69,11.78,11.78,0,0,0,23.56.22A11.81,11.81,0,0,0,113.19,134.19Zm-.13,14.4a2.76,2.76,0,0,1,0-5.52,2.59,2.59,0,0,1,2.58,3A2.43,2.43,0,0,1,113.06,148.59Z"/><path class="cls-1" d="M142.26,134.33a11.54,11.54,0,0,0-11.77,11.28,11.76,11.76,0,1,0,23.52,0A11.6,11.6,0,0,0,142.26,134.33Zm0,14.22a2.73,2.73,0,0,1-.12-5.45c2-.08,2.46,1.35,2.72,2.38C144.8,147.68,143.79,148.58,142.3,148.55Z"/></svg>