<svg id="Layer_1" data-name="Layer 1" xmlns="http://www.w3.org/2000/svg" viewBox="0 0 225 225"><defs><style>.cls-1{fill:#00b2ce;}</style></defs><path class="cls-1" d="M222.38,86.82c-1.64-1.26-3.52-1.1-5.38-1.1H67q-30,0-60,0c-2.59,0-4.87.41-6.28,2.86C-.16,90.05,0,91.71,0,93.33q0,33.9,0,67.82Q0,189.56,0,218c0,5.47,1.82,7.24,7.35,7.29H208.62c3.41,0,6.83.07,10.24-.07,3.68-.15,5.82-2.36,6.08-6,.06-.89.05-1.79.05-2.68V139.91q0-23.29,0-46.6C225,90.75,224.55,88.49,222.38,86.82Zm-16.8,90.46c-.39,2.81-1.74,4.74-4.41,5.55-9.17,2.78-15.08,9-18.56,17.67-1.38,3.44-4,4.31-7.41,4.31q-30.37-.06-60.73,0h-60c-5.6,0-6.48-.75-8.79-5.86-4.55-10.09-12.33-15.89-23.42-17-2.92-.3-3.5-.72-3.56-3.74-.09-4.71,0-9.43,0-14.14V139.17c0-.65,0-1.3,0-1.95.07-3.95.48-4.38,4.47-4.68,10.73-.81,20.69-9.24,23.66-20,1.57-5.71,2.85-6.75,8.66-6.76H173.73c5.42,0,6.67,1,8.09,6.12A27.44,27.44,0,0,0,199.42,131c4.13,1.54,6.16,3.64,6.25,8.26.2,9.67.12,19.33.06,29A67.81,67.81,0,0,1,205.58,177.28Z"/><path class="cls-1" d="M71.71,77.92q20.12,0,40.23,0t40.47,0c4.05,0,4.8-.59,5.72-4.49a71.62,71.62,0,0,0,1.24-26.62A86.09,86.09,0,0,0,155,29.34c-.32-.88-.5-2.06-1.7-2.14s-1.48,1.08-1.9,1.94-.79,1.78-1.21,2.66a18.44,18.44,0,0,1-11.66,10c-2.89.91-3.72.17-3.46-2.83a33.79,33.79,0,0,0-3.39-18.45c-3.72-7.39-9.3-13.06-16-17.72-1.4-1-2.79-2.9-4.66-2S110,4.05,109.88,5.75c-.25,6-2.36,10.87-7.48,14.29-2,1.35-3.92,2.89-5.89,4.33-8.56,6.29-14,14.19-13.1,25.38.11,1.49.83,3.69-1.19,4.28-1.77.53-2.42-1.58-3.3-2.74a49.87,49.87,0,0,1-7.15-13.53c-.29-.83-.58-1.82-1.65-1.9-1.23-.09-1.55,1-2,1.86-.2.45-.38.9-.54,1.36a66,66,0,0,0-2,33.92C66.38,77.2,67.37,77.92,71.71,77.92Z"/><path class="cls-1" d="M112.71,116.94c-21.55,0-38.92,17-39,38.2a38.41,38.41,0,0,0,38.46,38.45c19.69.66,38.37-15.87,38.58-38.05A38.29,38.29,0,0,0,112.71,116.94Zm11.11,55.53a9.41,9.41,0,0,1-3.94,2.81c-2.73.87-4.5,2.1-4.4,5.41.06,2-1.89,2.1-3.49,2.12s-3.38-.19-3.45-2.22c-.09-3-1.68-3.76-4.24-3.69a7.49,7.49,0,0,1-1.68-.29c-3.7-.83-4-1.25-4-5.11,0-.49,0-1,0-1.47.15-2.5.81-2.9,3-1.82a16.19,16.19,0,0,0,10.65,1.53c1.94-.41,3.59-1.31,4-3.41s-1-3.29-2.48-4.4a21.12,21.12,0,0,0-5-2.45,40.43,40.43,0,0,1-6.3-3.18c-4.33-2.76-5.94-6.76-5.27-11.72a10.57,10.57,0,0,1,7.59-9.26c2-.66,3.2-1.69,3.09-4s1.38-2.66,3.23-2.66,3.52.22,3.54,2.62c0,2,1,2.75,2.92,2.73a14.08,14.08,0,0,1,2.67.22c3.71.67,5.15,3.17,3.93,6.79-.65,1.91-2,1.82-3.57,1.29a17.59,17.59,0,0,0-9.57-1c-1.78.38-3.57.91-4,3s.94,3.33,2.38,4.46a29.25,29.25,0,0,0,6.94,3.52c6.59,2.74,9.3,8,9.88,14.68C126.44,169.29,125.2,170.93,123.82,172.47Z"/></svg>