<svg id="Layer_1" data-name="Layer 1" xmlns="http://www.w3.org/2000/svg" viewBox="0 0 225 225"><defs><style>.cls-1{fill:#00b2ce;}</style></defs><path class="cls-1" d="M214.09,148.65a23.88,23.88,0,0,0-6,1.33q-21.83,8.46-43.58,17.13a6.39,6.39,0,0,0-2.16,1.56,17.2,17.2,0,0,1-11.62,5.62c-5.12.3-10.25.32-15.37.46-10.74.27-21.47.52-32.21.82a4.27,4.27,0,0,1-4.2-2.25c-1.06-1.85-.33-3.53,1.76-3.92a23.7,23.7,0,0,1,3.78-.3c15.19-.4,30.39-.76,45.59-1.18,6.12-.17,10.21-4.32,10.15-10.18-.06-5.67-4.3-9.57-10.38-9.77s-11.93-.51-17.88-.93c-10.7-.75-20.91-3-30.35-8.53a53.52,53.52,0,0,0-24.52-6.93c-9.39-.45-18.8-.21-28.21-.26H41.6c0-1,0-2,0-3-.16-4.36-1.68-5.8-6.09-5.68l-32,.84v1.09c.36,2.79.79,5.58,1.06,8.38a132.34,132.34,0,0,0,19.92,58.35,4.7,4.7,0,0,0,4.58,2.53c2.84-.13,5.68-.08,8.51-.18,3.88-.12,5.47-1.78,5.46-5.62v-2.68c26.06,6.76,51.26,16.17,77.12,21.07h8.61c8.83-.69,16.11-5.18,23.55-9.28q31.83-17.57,63.69-35.07a10.89,10.89,0,0,0,5.52-6.36v-2.17C220.26,150.08,217.84,148.23,214.09,148.65Z"/><path class="cls-1" d="M180.85,56.56c1.11.84,2.2,1.7,3.33,2.53,2,1.44,4,2.82,5.93,4.3,4.29,3.26,8.54,6.58,12.81,9.87,1.56,1.2,3.17,2.35,4.69,3.62a5.29,5.29,0,0,1,.88,1.53h-.08c4.06.44,6,7,3.64,10.5a9.93,9.93,0,0,1-12.81,3.16c-.31-.16-.6-.35-1.21-.71-.06.86-.13,1.48-.13,2.09q0,24.33,0,48.66c0,1.11-.12,1.91-1.36,2.36-3.37,1.24-6.7,2.59-10.3,4,0-.92-.1-1.67-.1-2.42q0-30.57,0-61.14A4.3,4.3,0,0,0,184.19,81c-3.34-2.4-6.58-5-9.83-7.48a7.36,7.36,0,0,1-1-1.25l0,0c-4.29-2.68-8.53-5.43-11.86-9.33l.57-.09-.17-.26-.37.4-1.11-.39.08,0-1.29-1.27,0,.06c-1.75-1.19-3.57-2.3-5.26-3.58-5.43-4.09-10.82-8.24-16.23-12.37-2.47-1.89-4.88-3.86-7.42-5.64-2.33-1.62-6-.52-7.85,1.63a33.78,33.78,0,0,1-5.4,4.61c-3.3,2.51-6.72,4.85-10,7.38-6.83,5.27-13.58,10.65-20.41,15.92-4.59,3.54-9.27,7-13.92,10.43a7.07,7.07,0,0,0-3.26,6.43c.25,11.09.06,22.2.13,33.3,0,1.66-.42,2.2-2.11,2.11-2.65-.14-5.31-.07-8,0-1.36,0-1.78-.48-1.77-1.79,0-9.05,0-18.1,0-27.15a4.87,4.87,0,0,0-.4-2.15c-.53.55-1,1.39-1.61,1.62a15.31,15.31,0,0,1-4.5,1c-3.51.08-5.93-2-7.83-4.65-1.19-1.67-1.62-5.93.79-8.28a86.74,86.74,0,0,1,7-5.93c4.36-3.42,8.74-6.82,13.2-10.12a7.42,7.42,0,0,0,3.12-6.35c0-7.06,0-14.12,0-21.18,0-3,1.36-4.34,4.41-4.33H85c3,0,4.24,1.27,4.26,4.27,0,2.53,0,5.07.06,7.6,0,.11.1.21.29.62,1.64-1.23,3.19-2.49,4.84-3.61,1.82-1.22,3.73-2.3,5.6-3.44H100a1.31,1.31,0,0,1,.23.24l0,0,1.11-.32s.12-.09.12-.11a1.92,1.92,0,0,0-.12-.25l-.9-.34a19.67,19.67,0,0,1,1.54-1.49l19-14.59a11.54,11.54,0,0,1,15.24,1.2A42.87,42.87,0,0,0,140,24.92c1.15.93,2.14,2.07,3.31,3,.82.64,1.88,1,2.71,1.6,3.57,2.75,7.06,5.61,10.64,8.36,6,4.58,12,9.08,18,13.65,2.14,1.64,4.18,3.4,6.27,5.1Zm5.7,47.47h.33V89h-.33Zm-124,16.28-.05.75h4.16l0-.36Z"/><path class="cls-1" d="M123.23,84.57c0,1.56,0,3.13,0,4.69,0,1-.28,1.53-1.43,1.5-3.06-.05-6.13,0-9.2,0-1.06,0-1.51-.31-1.49-1.44.06-2.58,0-5.17,0-7.75A2.75,2.75,0,0,1,114,78.71c2.65-.07,5.3,0,7.94-.06,1,0,1.36.43,1.33,1.41C123.19,81.56,123.23,83.07,123.23,84.57Z"/><path class="cls-1" d="M132.56,78.71c3.31,0,6.32-.07,9.33,0a2.65,2.65,0,0,1,2.71,2.81c.09,2.65,0,5.3,0,8,0,.93-.36,1.27-1.29,1.26-3.14,0-6.27,0-9.41-.06-.46,0-1.31-.59-1.32-.93C132.52,86.16,132.56,82.56,132.56,78.71Z"/><path class="cls-1" d="M123.22,98.69c0,3.87,0,7.42-.06,11,0,.38-.76,1-1.19,1-2.65.1-5.31.1-8,0a2.76,2.76,0,0,1-2.86-2.89c-.06-2.66-.05-5.31,0-8,0-.4.61-1.12,1-1.13C115.75,98.66,119.36,98.69,123.22,98.69Z"/><path class="cls-1" d="M138.63,98.67c1.5,0,3,0,4.51,0,1.07,0,1.53.29,1.51,1.42-.06,2.53,0,5.06,0,7.59a2.93,2.93,0,0,1-3.07,3.06c-2.53.07-5.06,0-7.59,0-1,0-1.43-.28-1.41-1.34q.06-4.7,0-9.39c0-1,.4-1.4,1.39-1.37C135.5,98.7,137.06,98.68,138.63,98.67Z"/><path class="cls-1" d="M180.85,56.56l.05.06Z"/><path class="cls-1" d="M173.39,72.3l0,0Z"/><path class="cls-1" d="M208.41,78.41h0Z"/></svg>