<svg id="Layer_1" data-name="Layer 1" xmlns="http://www.w3.org/2000/svg" viewBox="0 0 225 225"><defs><style>.cls-1{fill:#00b2ce;}</style></defs><path class="cls-1" d="M152.14,88.21c-.13-1.31-.63-1.76-1.94-1.91-4.76-.57-9.54-1.14-14.27-2-19.14-3.33-38-7.44-54.48-18.47C60,79.71,35.59,83.16,10.93,86.65c-.08.52-.16.92-.2,1.32a147.73,147.73,0,0,0,3.5,48.51Q28,194.5,79.71,224.3a3.13,3.13,0,0,0,3.55.13C138.81,193.58,156.87,137.88,152.14,88.21ZM83.37,209.42c-1.46.93-2.43.64-3.72-.2C50.8,190.42,33.18,164,26,130.41a137.17,137.17,0,0,1-3.08-28.86V98.07c5.56-1,10.94-1.86,16.26-2.95,14.16-2.9,28-6.76,40.92-13.48a3,3,0,0,1,2.41,0c15.46,8,32.09,12.06,49.07,15,2.49.44,5,.84,7.46,1.27a9,9,0,0,1,1.16.44c-.28,6.1-.29,12.37-.89,18.59-1.87,19-7.27,37-17.2,53.5C112.39,186.57,99.23,199.33,83.37,209.42Z"/><path class="cls-1" d="M214.92,114.07V54c0-6.76-2.82-11.92-8.77-15.26-5.07-2.86-10.62-1.81-16-1.87-.29,0-.73.56-.86,1-1.27,3.84-2.49,7.69-3.78,11.7a2.11,2.11,0,0,0,.45.1h10.75c4.44,0,5.39,1,5.39,5.5V199.52c0,4.72-.93,5.63-5.77,5.63-25.58,0-51.16,0-76.73.06a6.59,6.59,0,0,0-3.81,1.51c-3.74,3-7.31,6.23-10.94,9.37-.57.5-1.13,1-2,1.76.92.05,1.4.1,1.88.1q46.56,0,93.11,0a18.92,18.92,0,0,0,4.12-.37c8-1.81,12.94-8.36,12.95-17.22Q214.94,157.2,214.92,114.07Z"/><path class="cls-1" d="M92.24,38.36c2.46,11.24,11.29,18.45,22.9,18.51,14.91.08,29.82,0,44.72,0,13.32,0,21.54-6.64,24.38-19.68,1.21-5.59-.73-8-6.39-8-7.65,0-15.3,0-23.22,0-.51-5.49-.77-10.71-1.51-15.85C151.52,2.35,140-3.3,130.54,2.23c-5.15,3-7.25,7.89-7.66,13.67-.32,4.36-.74,8.71-1.13,13.27h-2.89c-7.17,0-14.34,0-21.51,0-3.85,0-5.68,2-5.51,5.8A19.36,19.36,0,0,0,92.24,38.36ZM138.23,8a6.34,6.34,0,0,1,6.33,6.38,6.51,6.51,0,0,1-6.42,6.35,6.42,6.42,0,0,1-6.3-6.44A6.29,6.29,0,0,1,138.23,8Z"/><path class="cls-1" d="M71.93,65.77c2.16-1,3.31-2.24,3-4.81a51.83,51.83,0,0,1-.06-6.83c0-3.26,1.3-4.53,4.62-4.55,3.81,0,7.63,0,11.25,0-1.28-4.09-2.44-7.94-3.73-11.75a2.05,2.05,0,0,0-1.55-1c-2.59-.1-5.2-.12-7.8,0-7.47.37-14.13,5.48-15.06,12.9-.83,6.6-.18,13.39-.18,20.5C65.65,68.69,68.76,67.16,71.93,65.77Z"/><path class="cls-1" d="M189.45,77.29a11.71,11.71,0,0,0-3.59-.5q-21.15,0-42.29,0c-6,0-12,0-18,0l0,.9c7.8,1.11,15.57,2.87,23.4,3.21,12.61.54,25.26.16,37.89.13a6.13,6.13,0,0,0,2.59-.49,2.25,2.25,0,0,0,1.18-1.59A2.17,2.17,0,0,0,189.45,77.29Z"/><path class="cls-1" d="M135.91,182.5a2.8,2.8,0,0,0,.59.16q25.4,0,50.77,0a4.37,4.37,0,0,0,2.1-.45c.57-.33,1.31-1.07,1.25-1.55a2.47,2.47,0,0,0-1.32-1.77,11.26,11.26,0,0,0-3.58-.47c-14.65,0-29.29.09-43.94-.1C138.56,178.27,136.78,179.33,135.91,182.5Z"/><path class="cls-1" d="M142.88,170.07c.7,0,1.18.1,1.66.1q21,0,42,0c1.66,0,4,.19,4.06-2,0-2.44-2.4-2.15-4.14-2.15q-19.17,0-38.33,0C144.31,166,144.31,166,142.88,170.07Z"/><path class="cls-1" d="M154.18,138.14h2.36q14.88,0,29.76,0c1.77,0,4.25.22,4.28-2,0-2.5-2.55-2.22-4.36-2.23-9.27,0-18.54,0-27.81,0C154.6,133.83,154.6,133.84,154.18,138.14Z"/><path class="cls-1" d="M186.56,93.58c1.7,0,4,.07,4-2.07,0-2.36-2.39-2.2-4.15-2.2-8.87,0-17.74,0-26.61,0h-2.45c.09,1.6.16,2.8.24,4.16,1,.06,1.77.14,2.56.14Q173.38,93.6,186.56,93.58Z"/><path class="cls-1" d="M156.54,125.46c1,.05,1.76.12,2.56.12,9,0,18.05,0,27.08,0,1.79,0,4.45.41,4.39-2.14s-2.71-2-4.5-2c-8.62-.05-17.24,0-25.86,0C156.55,121.38,156.55,121.37,156.54,125.46Z"/><path class="cls-1" d="M90.64,105.11H72.22V126.8H50.59v18.53H72.3v21.54H90.8V145.21h21.5V126.66H90.64Z"/></svg>