<svg id="Layer_1" data-name="Layer 1" xmlns="http://www.w3.org/2000/svg" viewBox="0 0 225 225"><defs><style>.cls-1{fill:#00b2ce;}</style></defs><path class="cls-1" d="M16.89,156.38a3.92,3.92,0,0,1,2.81,1.87c2.06,4.78,3.85,9.69,6.16,15.64l-9.5,7.43,18.83,18.73,7.54-9.58c5.58,2.26,10.23,4,14.69,6.06a5.16,5.16,0,0,1,2.53,3.6c.61,9.79.52,9.8,10.33,10.21,1.61.07,3.22.07,4.82,0,9.46-.52,9.39-.54,9.74-9.87,0-1.3.78-3.28,1.75-3.73,4.84-2.22,9.88-4,15.73-6.33l7.67,9.24,17.86-17.88c-2.9-2.82-5.23-4.83-7.21-7.14a4.33,4.33,0,0,1-.87-3.6c1.89-4.86,4.1-9.59,6.41-14.85H138V131.6H125.68c-.92-2.74-1.2-5.46-2.59-7.37-5.21-7.14-3.2-12.52,3.44-17.13.18-.12.19-.51.62-1.79L109.62,87.92l-7.89,9.38c-5.19-2.13-9.55-4.19-14.11-5.66-2.31-.74-3-1.78-2.88-4,.14-3,0-6,0-9.38-5.35-.28-10-.76-14.64-.71-9.84.09-9.78.21-10.17,9.83,0,1.32-.82,3.32-1.81,3.77-4.85,2.2-9.9,4-16.39,6.51-1.88-2.54-4.22-5.69-7.05-9.53L16.31,106.66l9.59,7.53-7.25,17.47H7.5c-.59,1.47-1,2.53-1.44,3.59v17.53l1.52,3.51C10.78,156.29,13.85,156.13,16.89,156.38Zm55.65-46.64a34.21,34.21,0,1,1-34.29,34.12A34.28,34.28,0,0,1,72.54,109.74Z"/><path class="cls-1" d="M202.58,71.27a4.2,4.2,0,0,1-3.39-.07c-5.77-3.8-11.41-7.8-17.6-12.09a66.38,66.38,0,0,0-.09-7.19c-.11-1.14-1.12-3-1.86-3.11-5.4-.52-10.84-.66-16.72-.94V58.52l-21.1,11.16L132.62,64l-9.9,15.69c3.12,2,5.64,3.41,7.94,5.15a4.16,4.16,0,0,1,1.57,3c-.39,6.91-1,13.8-1.61,21.47a59.63,59.63,0,0,0-6.3,3.43c-.9.61-1.94,2.48-1.62,3.18,2.24,5,4.83,9.76,7.39,14.79,3.16-1.66,5.45-2.65,7.51-4,2.24-1.47,3.65-1,5.62.77,2.9,2.61,6.05,5.55,9.62,6.66,6.14,1.91,7.71,5.44,6.71,11.25-.18,1.06,1.12,3.35,1.91,3.43,5.39.57,10.82.69,16.29,1,.25-3.91.28-6.69.69-9.42a4.39,4.39,0,0,1,1.81-2.94c6.16-3.11,12.43-6,19.28-9.28l9,5.47c3.3-5.27,6.48-10.37,9.82-15.72-2.95-1.87-5.07-3.4-7.37-4.62s-2.29-2.47-2-4.9c.66-5.44.41-11,.67-16.49.06-1.26.3-3.13,1.12-3.63a73.89,73.89,0,0,1,8.19-3.87V81.78L210.9,67C207.73,68.67,205.22,70.14,202.58,71.27Zm-31.94,50.46a22.9,22.9,0,0,1-.2-45.79,22.9,22.9,0,0,1,.2,45.79Z"/><path class="cls-1" d="M111,44.29a20.17,20.17,0,0,0-10.44-28.92,24.48,24.48,0,0,0-3.76-.62c1.43,3.82,2.62,6.92,3.76,10.05,2.72,7.51.75,13.05-5.39,15.25-6,2.14-11-.73-13.73-7.94C80.23,28.88,79,25.63,77.6,21.86a24.62,24.62,0,0,0-2.23,2.8A20.19,20.19,0,0,0,86.89,53.79a6.84,6.84,0,0,1,5,4.72c2.73,7.85,5.73,15.6,8.69,23.37.71,1.85,1.7,3.59,2.7,5.69l6.39-5.38L125.9,95l.61-.62c-5.3-13.88-10.54-27.79-16-41.63C109.37,49.71,109.21,47.4,111,44.29Z"/><path class="cls-1" d="M159.63,194.36c1.39,1.69,4.19,2.69,6.49,3.07,4.58.75,8.31-1.22,10.67-5.24,2.57-4.35,2.13-8.68-.93-12.65-9.7-12.57-19.46-25.1-29.16-37.68a9.37,9.37,0,0,1-.94-2.42l-1.22,1c-.65,7.63-1.29,15.27-2,23.16l-8-1.11C143.24,173.6,151.27,184.12,159.63,194.36Zm7.43-15.19a7.39,7.39,0,1,1-7.16,7.77A7.33,7.33,0,0,1,167.06,179.17Z"/><path class="cls-1" d="M130.88.28l-1.23.26V39.68c2.68-8.19,5.25-16,7.77-23.8a2.57,2.57,0,0,0-.09-1.71C135.22,9.53,133,4.91,130.88.28Z"/><path class="cls-1" d="M133.6,197.35c-1.11,9.91-5.41,20.55,6.34,27.65C137.82,215.74,135.71,206.55,133.6,197.35Z"/><path class="cls-1" d="M200.33,162.34,186.65,161c-.09.24-.18.47-.26.71l14.79,7.86C200.85,166.74,200.62,164.76,200.33,162.34Z"/><path class="cls-1" d="M65.42,61.05,54,51.62C53.42,60.09,54.4,60.87,65.42,61.05Z"/><path class="cls-1" d="M72,162.7a18.64,18.64,0,0,0,19.13-18.56A18.84,18.84,0,1,0,72,162.7Z"/><path class="cls-1" d="M170.83,87.53a11.31,11.31,0,1,0-.37,22.62,11.31,11.31,0,0,0,.37-22.62Z"/></svg>