<svg id="Layer_1" data-name="Layer 1" xmlns="http://www.w3.org/2000/svg" viewBox="0 0 225 225"><defs><style>.cls-1{fill:#00b2ce;}</style></defs><path class="cls-1" d="M199.4,17.51s-.22-.05-.46-.08L171,14c-6.54-.82-13.09-1.52-19.6-2.51C144,10.32,137,11,130.33,14.39,115,22.15,99.57,29.86,84.24,37.69a11.09,11.09,0,0,0-3.86,3.44,8.57,8.57,0,0,0,4.76,13.32c2.64.64,5.16-.11,7.57-1a176.18,176.18,0,0,0,26.34-12.67,23.94,23.94,0,0,1,9.69-3.47c1.95-.2,3.9-.42,5.85-.58a247.06,247.06,0,0,1,28.15-.36l0,.34c-2.13,0-4.25,0-6.37,0-7.43.13-14.86.23-22.28.43a9.7,9.7,0,0,0-9.53,9.53,9.51,9.51,0,0,0,8.63,9.8q13.27,1.24,26.56,2.37a49.41,49.41,0,0,1,13.77,2.86,50.9,50.9,0,0,0,22,3.39c1.14-.08,2.27-.24,3.14-.33a36.28,36.28,0,0,1-.87-6.13C198.26,44.93,198.85,31.27,199.4,17.51ZM144.88,51.27a2.72,2.72,0,0,1-3,2.42q-5.34-.52-10.68-1.13a2.72,2.72,0,1,1,.49-5.42c3.6.34,7.21.71,10.81,1.13A2.64,2.64,0,0,1,144.88,51.27Z"/><path class="cls-1" d="M139.8,166.3c-2.65-.6-5.16.16-7.57,1.09A174.2,174.2,0,0,0,106.11,180a24.53,24.53,0,0,1-10.54,3.63c-3.2.26-6.4.74-9.6.78-7.92.12-15.84,0-23.77,0a9.39,9.39,0,0,1,1.58-.15c9-.19,18-.34,27-.58a9.68,9.68,0,0,0,9.58-9.47,9.48,9.48,0,0,0-8.57-9.84Q78.61,163.08,65.39,162a48.88,48.88,0,0,1-13.91-2.86,49.81,49.81,0,0,0-17.7-3.49c-2.56,0-5.11.2-7.43.31a48.29,48.29,0,0,1,.83,6.55c-.05,5.17-.35,10.34-.56,15.51-.34,8.37-.68,16.74-1,25.29,9.33,1.15,18.84,2.32,28.36,3.51,6.58.82,13.15,1.75,19.74,2.45a66.72,66.72,0,0,0,10.09.36c4.71-.22,8.93-2.23,13.08-4.33q21.77-11,43.56-22a10.66,10.66,0,0,0,4.3-3.71C148.06,174.47,145.53,167.62,139.8,166.3ZM79,169.06a2.77,2.77,0,0,1,3-2.46c3.6.35,7.21.73,10.81,1.13a2.72,2.72,0,0,1,2.43,3,2.79,2.79,0,0,1-2.83,2.48c-3.73-.39-7.34-.75-10.94-1.16A2.73,2.73,0,0,1,79,169.06Z"/><path class="cls-1" d="M112.5,56.82A53.56,53.56,0,1,0,166,110.48,53.34,53.34,0,0,0,112.5,56.82Zm0,97A43.43,43.43,0,1,1,156,110.37,43.4,43.4,0,0,1,112.54,153.8Z"/><path class="cls-1" d="M217.21,12.67a34,34,0,0,0-3.49-.19c-5.73-.14-9.64,3.61-9.83,9.32-.18,5.26-.42,10.51-.63,15.76-.27,6.92-.59,13.84-.8,20.76-.17,5.51,3.71,9.52,9.24,9.71,1,0,2.08.07,3.12.06a9,9,0,0,0,8.91-8.58c.28-6.33.52-12.67.77-19s.54-12.51.68-18.76A8.93,8.93,0,0,0,217.21,12.67Zm4,40.73H221c0,1.79,0,3.58,0,5.37a3.27,3.27,0,1,1-6.5-.13q.09-5.23.27-10.49a3.27,3.27,0,1,1,6.5.13C221.24,50,221.23,51.69,221.23,53.4Z"/><path class="cls-1" d="M13.35,152.75c-1,0-2-.07-3-.07a9,9,0,0,0-9.08,8.66C1,167.68.76,174,.58,178.31.27,186.56,0,192.77-.18,199a8.91,8.91,0,0,0,7.07,9,24.84,24.84,0,0,0,4.48.35c5.64.14,9.56-3.64,9.75-9.29.18-5.29.42-10.58.63-15.88.27-6.87.57-13.75.79-20.63A9.14,9.14,0,0,0,13.35,152.75Zm-1.53,7.87q-.3,5.5-.71,11A3.47,3.47,0,0,1,7.59,175a3.55,3.55,0,0,1-3.22-3.79c.07-1.83.23-3.66.35-5.5h0c.11-1.79.23-3.58.34-5.37.13-2.24,1.67-3.84,3.56-3.74S11.94,158.37,11.82,160.62Z"/><path class="cls-1" d="M121.5,106.87c-2.48-.65-5-1-7.64-1.46V97.94c2.73-.23,3.46.24,4.32,2.65h9.38V98.37A7.4,7.4,0,0,0,123,91.19a12.74,12.74,0,0,0-3.44-1.08c-1.88-.29-3.8-.37-5.86-.55V86.69h-3.11v3a14.33,14.33,0,0,0-1.48,0,56.31,56.31,0,0,0-5.82.66,7.86,7.86,0,0,0-6.63,7.06,38.4,38.4,0,0,0-.24,5.36c0,5.77,2.42,8.8,8.07,10.08,2,.45,4,.66,6.06,1v8c-3.35.3-4-.23-5.16-3.91H96.19c0,1.39,0,2.68,0,4a7.27,7.27,0,0,0,4.27,6.7,15.05,15.05,0,0,0,4,1.29c2,.33,4,.4,6.21.6v3.58h3.05v-3.89c2,0,3.93.13,5.79,0a9.71,9.71,0,0,0,9.14-8.63,36.19,36.19,0,0,0,.14-5C128.84,111,126.82,108.28,121.5,106.87Zm-10.9-1.81c-3.19.08-4.39-1.14-4.3-4.25.06-2.28,1.31-3.13,4.3-2.86Zm3.23,16.79v-7.53c3.71-.22,5,1.05,5,4.71C118.75,121.39,117.35,122.21,113.83,121.85Z"/><path class="cls-1" d="M86.62,83c-14.48,16-14.57,37.28-.07,54.76-.19-.49-.28-.7-.36-.92-1.54-4.62-3.35-9.17-4.57-13.87a56.23,56.23,0,0,1-1.18-23.7A44,44,0,0,1,86.62,83Z"/></svg>