<svg id="Layer_1" data-name="Layer 1" xmlns="http://www.w3.org/2000/svg" viewBox="0 0 225 225"><defs><style>.cls-1{fill:#00b2ce;}</style></defs><path class="cls-1" d="M182.13,60.69c0-10.16-3.45-13.71-13.55-14-1.72,0-3.19,0-4-2.06-1.11-2.77-3.45-3.7-6.38-3.57s-5.82.16-8.72,0c-3.23-.18-5.58.83-7.07,3.9-.83,1.71-11.57,2.61-12.7,1.12a4.23,4.23,0,0,1-.4-2.37c-.05-2.9.09-5.82-.07-8.71-.27-4.84-3.16-7.8-7.89-7.81q-26.57-.12-53.13,0c-4.79,0-7.67,2.93-7.91,7.76a60.35,60.35,0,0,0,0,8.29c.26,2.91-1,3.66-3.6,3.45a20.21,20.21,0,0,0-3.73,0c-3.06.3-5.29-.2-7.1-3.35-2-3.47-17.92-3.56-19.94-.1-1.81,3.06-3.93,3.53-7,3.52-7,0-11.33,4.31-11.52,11.35-.11,4.14,0,8.3,0,12.45h0a30.33,30.33,0,0,1-.06,5.8C5.6,85.12,10.4,90,17,94.55c15.61,10.87,33.13,13.92,51.59,13.92,7.33,0,7.33.11,7.5-7.28.14-5.52,2.33-7.76,7.85-7.82,5.68-.05,11.35.14,17-.05,9.37-.31,13.38.2,12.48,12-.19,2.56.71,3.36,3.27,3.3,7.19-.17,14.38-.25,21.54-1.06,15.61-1.77,29.16-8.12,40.94-18.43a8,8,0,0,0,3-6.82C182,75.08,182.15,67.88,182.13,60.69ZM117.79,45.41c-.46,1.87-2.23,1.24-3.5,1.25-6.64.06-13.27,0-19.9,0-6.37,0-12.73,0-19.09,0-1.29,0-3.12.66-3.62-1.07a4.48,4.48,0,0,1,1.85-4.75A5.42,5.42,0,0,1,77,39.74h35.68A5.05,5.05,0,0,1,116.12,41,4.33,4.33,0,0,1,117.79,45.41Z"/><path class="cls-1" d="M77.67,170.75q-28.43,0-56.85,0c-9.49,0-13.48-3.9-13.5-13.31q-.08-27.6,0-55.2c0-1.18-.54-2.77.77-3.41s2.18.81,3.15,1.51A81,81,0,0,0,56,116c5.39.22,10.77.59,16.16.69,2.76,0,4.07,1,4,3.92-.11,4-.08,8,0,12,.08,5.14,2.27,7.47,7.26,7.54q11,.17,22,0c5.74-.07,7.9-2.31,8.06-8.17.1-3.59.21-7.2,0-10.79-.18-3.44,1.19-4.69,4.59-4.57a135,135,0,0,0,27.67-2.05c12.2-2.11,23-7.62,33.13-14.63.77-.54,1.49-1.63,2.46-1.26,1.28.48.86,1.88.91,2.94.6,12.13.59,12.13-10.79,16.08-7.84,2.72-15.63,5.58-23.53,8.09-4.56,1.45-6.41,4.35-6.38,8.94.06,10,.08,19.92,0,29.88,0,5.76-.42,6.07-6.15,6.07Z"/><path class="cls-1" d="M218,175.19c-.23-5.95-.05-11.91-.05-17.87,0-6.5,0-13,0-19.51,0-4.08-1.66-6.71-5.73-8-8.8-2.87-17.55-6-26.27-9.08a10.78,10.78,0,0,0-7.65,0c-8.46,3-17,5.89-25.49,8.85-5.49,1.91-6.55,3.34-6.57,9.05,0,12.31.12,24.64-.07,37-.07,5.71,2.21,10.07,6.86,12.92,20.59,12.55,37.45,12.58,58,0C215.87,185.57,218.26,181.06,218,175.19ZM182.19,133.4c-.23,8.42-.06,16.86-.06,25.29,0,8.71,0,17.42,0,26.13,0,2.23-.2,3.88-3.11,3.31-6.4-1.27-12.65-2.93-18.2-6.56-3.86-2.52-5.89-5.88-5.78-10.71.2-9,.15-18,0-27-.06-3.92,1.51-6.11,5.27-7.27,5.93-1.83,11.82-3.86,17.62-6.09C181.1,129.32,182.3,129.59,182.19,133.4Z"/><path class="cls-1" d="M108,117c0,3.73,0,7.46,0,11.19,0,3.56-1.8,5.35-5.37,5.35H86.83c-3.6,0-5.33-1.92-5.34-5.41,0-7.6-.06-15.21,0-22.81,0-3.32,1.85-5.11,5.19-5.14q8.09-.07,16.17,0c3.38,0,5,1.93,5.09,5.23C108,109.25,108,113.12,108,117Z"/></svg>