<svg id="Layer_1" data-name="Layer 1" xmlns="http://www.w3.org/2000/svg" viewBox="0 0 225 225"><defs><style>.cls-1{fill:#00b2ce;}</style></defs><path class="cls-1" d="M198.22,223.9q-90.09,0-180.18,0a2,2,0,0,0,.05.93H204.92c-.08-.41-.15-.81-.23-1.22C202.53,223.74,200.38,223.9,198.22,223.9Z"/><path class="cls-1" d="M198.52,222.26c2.14,0,4.36-.16,6.17,1.39.17-8.17.17-8.17-6.85-9.8-1.61-1.7-.87-3.81-.88-5.72q-.08-48.4,0-96.8c0-2.15.26-4.35-1-6.31h0c-1.77,1.22-3.46,2.57-5.31,3.65-11.88,6.9-24.31,9-37.17,3.15-13.62-6.16-22.91-26.12-18.25-38.6,2.93,2.22,5.77,4.51,8.78,6.55,1.26.86,2.91,2.34,4.45.71,1.25-1.33.88-3.19,0-4.67-1.17-2-2.53-3.9-3.89-5.77-2.24-3.09-5.75-5.89-6.11-9.56-.75-7.5-6-10.84-11.16-14.62-3.63-2.65-7.26-5.32-10.62-8.28-2.41-2.13-4-2.1-6.69-.12C87.49,54.29,64.84,70.91,42.25,87.64c-5.73,4.24-13.49,7.53-16.43,13.25-2.85,5.55-.72,13.66-.72,20.65q0,44.19,0,88.39c0,2.13.93,5.16-3.08,4.55-3.73-.57-4.66,1.19-4.22,4.5.22,1.64.19,3.31.27,5,1.9-1.73,4.26-1.69,6.59-1.69Q111.57,222.21,198.52,222.26Zm-49-73.37c6.8.16,13.62.2,20.41,0,3.07-.1,3.53,1.22,3.48,3.82-.14,6.63-.05,13.27-.05,19.91h.06c0,6.47-.09,13,.05,19.42.05,2.38-.69,3.22-3.09,3.19-7-.11-13.94-.14-20.91,0-2.73.06-3.31-1.09-3.29-3.56q.14-19.67,0-39.33C146.18,149.76,146.89,148.82,149.55,148.89ZM129.76,214.6q-18.21-.36-36.44,0c-3.62.07-4.36-1.14-4.33-4.51.15-21,.08-41.93.09-62.9h0c.78-1.5,2.21-1.22,3.5-1.22q18.92,0,37.83,0c1.29,0,2.72-.29,3.53,1.18,0,21,0,41.93.11,62.9C134.07,213.35,133.44,214.67,129.76,214.6ZM85.84,124.34c.14-2.73,0-5.1,3.84-4.37,3.39.66,4.08-1,4.06-4.11-.06-12.62.16-25.25.28-37.88,1-1.23,2.37-1,3.66-1q14.34,0,28.68,0c1.28,0,2.68-.29,3.63,1,.07,12.64.25,25.27.12,37.91,0,3.28.88,4.65,4.14,4,3.83-.72,3.68,1.64,3.82,4.36.17,3.09-.81,3.94-3.89,3.91q-22.22-.24-44.41,0C86.7,128.27,85.68,127.44,85.84,124.34ZM53.06,148.87c6.82.23,13.66.18,20.48,0,2.7-.06,3.35.93,3.32,3.47q-.15,19.72,0,39.46c0,2.65-.9,3.45-3.45,3.4-6.83-.13-13.66-.15-20.48,0-2.73.06-3.37-1.05-3.32-3.53.12-6.5,0-13,0-19.48s.08-13,0-19.48C49.57,150.17,49.94,148.77,53.06,148.87Z"/><path class="cls-1" d="M204.69,223.65c-1.81-1.55-4-1.39-6.17-1.39q-86.94-.06-173.89,0c-2.33,0-4.69,0-6.59,1.69q90.09,0,180.18,0C200.38,223.9,202.53,223.74,204.69,223.65Z"/><path class="cls-1" d="M142.66,61.83c2.1,3.38,4.66,6.48,7,9.68a11.48,11.48,0,0,1,2.58,6.36c.23,5.14-3,7.42-7.69,5.2A78.68,78.68,0,0,1,137.75,79c-.27,15.31,8.3,28.21,21.48,31.84,23.21,6.39,48.84-11.35,46-36.89a28.33,28.33,0,0,1,6-21c.62-.81,2-1.39,1.33-2.91a18.63,18.63,0,0,0-9.29,1c-3.08,1.24-5.35,3.63-8.07,6.13-.21-2.64-.4-4.6-.52-6.56-.76-12.11-5.79-20.24-18.81-22.58-8.59-1.55-16-5.76-19.62-15.13-.21,1.1-.43,2.21-.65,3.31-1.6,8.19-1.7,15.82,6.06,21.56a13.79,13.79,0,0,1,5.54,9.19c.39,2.77.47,5.43-2.45,6.93s-5.52.67-7.83-1.31a11.74,11.74,0,0,1-4.07-9.31c0-4-1.81-3.4-4.28-2.12C140.56,45.22,137.91,54.23,142.66,61.83Z"/><path class="cls-1" d="M117.4,30.38c6.73,5.88,13.9,11.26,21,17a29.86,29.86,0,0,1,6.8-7.88c-10-8-19.86-15.89-29.57-24-2.11-1.76-3.31-1.14-5,.25C105.45,19.91,100.18,24,95,28.07q-43.35,34-86.66,68.1c-1.12.89-3.54,1.84-2.89,3a22.81,22.81,0,0,0,5.65,6.16c1.49,1.19,2.56-.81,3.59-1.61Q62,67.09,109.18,30.29C112.4,27.76,114.28,27.66,117.4,30.38Z"/><path class="cls-1" d="M216.91,97.43,206.47,89c-1.51,3.3-4.69,7.14-3.79,9,1.6,3.22,5.35,6.09,8.83,7.39,2.14.79,4-3.3,6.07-5.12C218.88,99,217.85,98.19,216.91,97.43Z"/><path class="cls-1" d="M197.37,110.91q.09,48.76.06,97.54c0,1.79-.39,3.65.41,5.4q0-53.53.08-107.07c0-.83.28-1.88-.12-2.44-1.13-1.61-1.29.23-1.85.68C198.37,106.5,197.37,108.91,197.37,110.91Z"/><path class="cls-1" d="M196.93,111.33q0,48.39,0,96.8c0,1.91-.73,4,.88,5.72-.8-1.75-.41-3.61-.41-5.4q0-48.78-.06-97.54c0-2,1-4.41-1.42-5.89h0C197.19,107,196.93,109.18,196.93,111.33Z"/><path class="cls-1" d="M172.34,18.3c.73.68,1.41,1.41,2.14,2.1s1.51,2.28,2.77,1.39a5.15,5.15,0,0,0,1.44-3,4.68,4.68,0,0,0-1.64-4.5c-3.82-3.26-5.47-7.37-5-13.34C165.42,9.34,165.62,12.19,172.34,18.3Z"/><path class="cls-1" d="M89.84,146.57q21.66-.25,43.32,0c.26,0,.52.38.78.58-.81-1.47-2.24-1.18-3.53-1.18q-18.91,0-37.83,0c-1.29,0-2.72-.28-3.5,1.22h0C89.33,147,89.58,146.57,89.84,146.57Z"/><path class="cls-1" d="M133.16,146.56q-21.66-.23-43.32,0c-.26,0-.51.4-.76.61h0l44.86,0C133.68,146.94,133.42,146.57,133.16,146.56Z"/><path class="cls-1" d="M130,78c-1-1.28-2.35-1-3.63-1Q112,77,97.68,77C96.39,77,95,76.75,94,78A278.54,278.54,0,0,1,130,78Z"/><path class="cls-1" d="M94,78l36,0A278.54,278.54,0,0,0,94,78Z"/></svg>