<svg id="Layer_1" data-name="Layer 1" xmlns="http://www.w3.org/2000/svg" viewBox="0 0 225 225"><defs><style>.cls-1{fill:#00b2ce;}</style></defs><path class="cls-1" d="M196.15,79.88C193.61,32.13,153.33-3,107.3.21,76.78,2.36,54,17.27,39,43.86c-6.62,11.68-9.56,24.42-10.18,37.76-.13,2.9.49,5.59,3.82,5.85,2.91.22,4.43-1.74,4.34-4.73a14.15,14.15,0,0,1,2.12-7.5c4.07-7.13,15.06-11.16,25.24-9.3,10,1.82,16,7.27,17.5,16.31.44,2.65.92,5.17,3.94,5.34,3.36.2,4-2.39,4.54-5.24C92,74.21,99.44,67.19,107,65.92c2.48-.42,3.54.09,3.49,2.83q-.18,10.56,0,21.11c0,2.39-.61,3.3-3.18,3.57A63.6,63.6,0,0,0,91,97.19c-21.34,8.29-37,30.64-36.15,51.61.1,2.3.34,4.41,3.16,4.53,2.34.1,3.1-1.33,3.47-3.64,1.19-7.25,5.83-10.83,13.69-11,8.24-.21,13.54,3.46,15.21,10.72.46,2,.8,3.93,3.34,3.92,2.76,0,3.31-1.84,3.49-4.25.3-4,2.58-6.75,6.12-8.58,4.68-2.42,5.21-2.15,5.22,3.07q0,33,0,66a29.43,29.43,0,0,1-.63,5.19c-.63,3.44-2.49,5.72-6.16,6.22-3.85.52-6.49-1.25-8.16-4.49a53.42,53.42,0,0,1-2.45-6.35c-.39-1.07-.87-2-2.2-1.73s-1.35,1.38-1.38,2.46c-.15,4.65,4.6,11.71,9,13.35,8.06,3,15.35-2.3,15.54-11.73.25-11.61.06-23.22.06-34.83h0c0-11.79,0-23.58,0-35.37,0-1.52-.85-3.72,2.29-3.51,4.9.33,10.12,4.65,11.2,9.64.49,2.24.53,4.94,3.62,4.92s3.21-2.61,3.66-4.91c1.2-6.1,6.32-9.67,13.74-9.72,7.81-.05,13.7,3.81,14.74,10,.41,2.43.56,4.85,3.7,4.61,3.57-.27,3.15-3.18,3.06-5.61a54.67,54.67,0,0,0-15-36.15c-9.43-10.21-21.18-15.93-34.92-17.8-1.74-.23-4.36.43-4.25-3.13.23-7.38.12-14.78,0-22.17,0-2.06.61-2.73,2.75-2.52,8.24.82,16.74,8.5,18.06,16.8.4,2.49,1,4.8,3.73,4.92,3,.13,4.08-2.1,4.31-4.9a16.35,16.35,0,0,1,5.53-11.58c13.78-11.93,35.7-4.86,39.47,12.76.52,2.42,2,3.91,4.26,3.84s3.78-1.75,4-4.15A25.27,25.27,0,0,0,196.15,79.88Zm-112-5.46c-7-9.24-15.66-12.85-25.93-12.61-10.43.24-18.87,4.38-24.53,14.31C30.06,44,69.72,5.2,106.65,4.41,91.92,25.42,83.39,47.78,84.19,74.42Zm7.69,67.44a20.94,20.94,0,0,0-16.64-7c-6.22.19-11.61,2.23-15.89,7.78,3.34-24.32,23.27-43.25,47.49-45.09C96.78,110.72,93.36,125.47,91.88,141.86Zm71.55.43c-9.41-9.6-20.7-10-32.43-1-1.91-15.23-3.81-30.35-13.22-43.22C138.6,97.55,163.47,121.78,163.43,142.29Zm-49.14-42.13a43.49,43.49,0,0,1,7.57,14.29,101.18,101.18,0,0,1,4.91,26.16c-10.19-7.52-20.12-8.12-30-.42-1.64-10.32,6.13-33.3,13.44-40.5C112.16,97.74,113.07,98.69,114.29,100.16ZM111.6,61.72Q96.51,62,88.32,75.14c-1.13-25.74,6.86-48.4,21.91-68.82,1.92-2.6,3.17-1.77,4.91-.05,5.77,5.67,9.5,12.63,12.31,20.05,5.68,15.07,8.21,30.78,9,48.13C129.69,65.74,121.56,61.55,111.6,61.72Zm80.33,17c-8.12-21.3-39.42-22-51.24-4.79C138.17,49.12,135.48,25,119.58,5,151.87,1,192.89,42.86,191.93,78.67Z"/></svg>