<svg id="Layer_1" data-name="Layer 1" xmlns="http://www.w3.org/2000/svg" viewBox="0 0 225 225"><defs><style>.cls-1{fill:#00b2ce;}</style></defs><path class="cls-1" d="M215.52,95.69a21.07,21.07,0,0,0-.13-3.64,36,36,0,0,0-1.2-6.68,32.3,32.3,0,0,0-4.69-10.43c-3.38-5-8-8.68-12.81-12.18-1.31-1.11-2.72-2.1-4.09-3.14a5.75,5.75,0,0,1-.9-.73c-5.08-3.91-10.16-7.82-15.28-11.67a35.23,35.23,0,0,1-3.89-3c-.56-.44-1.17-.81-1.73-1.23-6.85-5.28-13.75-10.48-20.62-15.72A80.1,80.1,0,0,0,143.41,22c-4.61-3.46-8.9-7.38-14.06-10.07a34.21,34.21,0,0,0-14.11-4h-7.57a24.53,24.53,0,0,0-8.93,2.35A66.42,66.42,0,0,0,88.28,17.2a8.1,8.1,0,0,0-1.12.91,46.28,46.28,0,0,1-3.87,3C78.1,24.85,73,28.79,68,32.76a5.67,5.67,0,0,1-1.1.85q-2.33,1.64-4.53,3.4C57.29,41,52.11,44.9,47,48.84c-.26.18-.52.36-.76.56-1.53,1.08-2.91,2.36-4.48,3.39-5.23,3.76-10.17,7.89-15.39,11.66A39.77,39.77,0,0,0,21.15,69,8.42,8.42,0,0,1,20.22,70a40.8,40.8,0,0,0-7,10.16,46.08,46.08,0,0,0-3.36,10.5,16.6,16.6,0,0,0-.38,4.87,39.54,39.54,0,0,0,.35,5.33,31.88,31.88,0,0,0,.82,5c.62,1.77,1.13,3.57,1.72,5.35A31.85,31.85,0,0,1,14,116.4c.49,1.6.84,3.25,1.49,4.8,1.22,3.51,2.24,7.08,3.31,10.64.5,1.61.87,3.26,1.5,4.82,1.09,3.57,2.27,7.11,3.27,10.71.38,1.73,1.1,3.36,1.57,5.07,1.16,3.45,2.14,6.95,3.25,10.41a44.7,44.7,0,0,0,1.54,5.06q.91,2.59,1.59,5.25c.92,3.55,2.11,7,3.23,10.49a43.68,43.68,0,0,1,1.56,5,37.26,37.26,0,0,0,3.94,9.86,42.69,42.69,0,0,0,11.91,13.22A35.3,35.3,0,0,0,57,214.51a3.08,3.08,0,0,0,.47.19A27.61,27.61,0,0,0,67.41,217h89.46c3.14-.35,6.28-.67,9.19-2a47.87,47.87,0,0,0,10.1-5.53c.19-.16.37-.32.54-.49a28.63,28.63,0,0,0,4.55-4.39,5,5,0,0,0,.48-.54,37.57,37.57,0,0,0,5.77-10.42,57.26,57.26,0,0,0,1.86-5.69c1.14-3.17,1.93-6.45,3-9.65.48-1.62,1.15-3.18,1.47-4.85,1-3.56,2.1-7.12,3.28-10.64.56-1.68,1.08-3.37,1.54-5.08s.9-3.4,1.57-5c2.84-8.58,5.42-17.25,8-25.91.52-1.77,1-3.56,1.63-5.3,1-3.42,2.33-6.77,3.2-10.24.55-1.92,1.07-3.84,1.64-5.75a28.9,28.9,0,0,0,.81-4.88C215.57,99,215.55,97.33,215.52,95.69ZM73.44,68.06a57.72,57.72,0,0,1,3.78-8.68,64.3,64.3,0,0,1,3.67,8.7c.57,2,.13,3.69-1.31,4.72a3.94,3.94,0,0,1-4.91-.11A4.06,4.06,0,0,1,73.44,68.06ZM57.3,77.63a80.26,80.26,0,0,1,4.91-11.22c2,4.21,4,8,5.12,12.17a5.37,5.37,0,0,1-4.64,6.71c-2.66.42-5.65-2.05-5.86-5A7.07,7.07,0,0,1,57.3,77.63Zm36.94,88c-4.85,6.74-13.33,6.12-18,2.59a12.65,12.65,0,0,1-4.28-5.8c-.33-.87-.66-1.39-1.77-1.34a2.44,2.44,0,0,1-2.85-2.61,2.52,2.52,0,0,1,2.6-3c1.32-.13.74-1.05.82-1.67s.22-1.42-.93-1.33c-1.58.11-2.59-.54-2.48-2.26s1.35-2.1,2.8-2c1.08.1,1.52-.28,1.93-1.35,3.47-9,15.29-11.31,21.72-4.3a3.52,3.52,0,0,1,.06,4.79,3.36,3.36,0,0,1-4.76-.21c-3.45-3.95-7.62-3-10.14,1.06,2,0,3.82,0,5.69,0A2,2,0,0,1,87,150.33c.05,1.43-.89,2.16-2.3,2.17-2,0-3.9.06-5.85,0-1.35-.05-1.25.82-1.3,1.7s.26,1.34,1.28,1.31c1.89-.07,3.78,0,5.67,0A2.66,2.66,0,0,1,87,158.31a2.72,2.72,0,0,1-2.44,2.78c-1.87,0-3.75,0-5.71,0,2.06,3.55,6.59,5.46,10.19,1.31a3.57,3.57,0,0,1,2.34-1.53,2.8,2.8,0,0,1,3,1.24A2.94,2.94,0,0,1,94.24,165.62Zm76.25-44.56a23,23,0,0,0-13.44-3c-4.46.29-8.64,1.36-12,4.67-.81.8-.89,2.5-2,2.45-.64,0-1.12-1.66-1.83-2.42a14.6,14.6,0,0,0-8.22-4.19,22.37,22.37,0,0,0-14.81,1.74,2.48,2.48,0,0,0-1.62,2.59c.06,15.12,0,30.25,0,45.38a8.76,8.76,0,0,0,7,9c4.22,1,9.28-2.52,9.84-6.86.09-.68.14-1.36.23-2a3.38,3.38,0,0,1,3.36-3.23,3.44,3.44,0,0,1,3.42,3.53c.32,6.93-5.07,13.87-11.91,15.33a15.59,15.59,0,0,1-19.15-15.48q0-22.86,0-45.72a2.42,2.42,0,0,0-1.63-2.62c-7.73-3.24-15.25-3.23-22.52,1.31a7.19,7.19,0,0,0-2.72,3.23c-.36.78-.72.86-1.14.1-2.24-4.1-6.14-5.63-10.36-6.4-5.92-1.09-10.43-.25-16,2.68A36.16,36.16,0,0,1,56.55,113c3.63-11.74,11-20.64,21.17-27.31A61.58,61.58,0,0,1,104,76a31,31,0,0,1,3.58-.36c1.44,0,2-.51,1.88-2-.13-2.67,1.26-4.1,3.64-4.1A3.24,3.24,0,0,1,116.62,73c0,2.58,0,2.51,2.57,2.73,15.59,1.36,29,7.4,39.61,19a43.25,43.25,0,0,1,11.5,24.41C170.37,119.76,170.81,120.32,170.49,121.06Z"/></svg>